<svg xmlns="http://www.w3.org/2000/svg" width="163" height="139" viewBox="0 0 163 139"><g transform="translate(-1130 -326)"><rect width="163" height="139" rx="5" transform="translate(1130 326)" fill="#e9ebf2"/><path d="M1.394-12.138V0H3.009V-12.138Zm4.1,3.349V0H6.936V-4.964a3.56,3.56,0,0,1,.161-1.1,2.49,2.49,0,0,1,.484-.875,2.152,2.152,0,0,1,.807-.578,2.945,2.945,0,0,1,1.148-.2,1.769,1.769,0,0,1,1.309.476,1.746,1.746,0,0,1,.476,1.292V0h1.445V-5.78a5.439,5.439,0,0,0-.145-1.3,2.463,2.463,0,0,0-.5-1.011,2.376,2.376,0,0,0-.935-.663,3.814,3.814,0,0,0-1.445-.238,3.043,3.043,0,0,0-2.856,1.6H6.851V-8.789Zm11.458,0v-2.635H15.5v2.635h-1.5v1.275h1.5v5.593a3.34,3.34,0,0,0,.119.986,1.2,1.2,0,0,0,.366.578,1.411,1.411,0,0,0,.646.28A5.189,5.189,0,0,0,17.595,0h1.1V-1.275h-.663a4.819,4.819,0,0,1-.552-.025.714.714,0,0,1-.331-.11.42.42,0,0,1-.162-.238,1.577,1.577,0,0,1-.042-.408V-7.514H18.7V-8.789ZM26.4-5.236H21.352a3.01,3.01,0,0,1,.221-.96,2.562,2.562,0,0,1,.51-.791,2.336,2.336,0,0,1,.774-.535,2.516,2.516,0,0,1,1.012-.2,2.472,2.472,0,0,1,.994.2A2.5,2.5,0,0,1,25.644-7a2.477,2.477,0,0,1,.527.791A2.956,2.956,0,0,1,26.4-5.236Zm1.394,2.448H26.367A2.055,2.055,0,0,1,25.593-1.5a2.5,2.5,0,0,1-1.5.425,2.993,2.993,0,0,1-1.241-.238,2.432,2.432,0,0,1-.867-.638,2.483,2.483,0,0,1-.493-.918,3.489,3.489,0,0,1-.136-1.1h6.579a7,7,0,0,0-.145-1.683,4.872,4.872,0,0,0-.646-1.632A3.849,3.849,0,0,0,25.9-8.509a3.606,3.606,0,0,0-1.946-.484,4,4,0,0,0-1.657.34,3.9,3.9,0,0,0-1.309.952,4.388,4.388,0,0,0-.859,1.445,5.289,5.289,0,0,0-.306,1.836,7.045,7.045,0,0,0,.3,1.853,4.044,4.044,0,0,0,.791,1.462,3.6,3.6,0,0,0,1.3.952,4.515,4.515,0,0,0,1.827.34A3.989,3.989,0,0,0,26.52-.561,3.512,3.512,0,0,0,27.795-2.788Zm1.717-9.35V0h1.445V-12.138Zm3.774,0V0h1.445V-12.138Zm5.219,1.768v-1.768H37.06v1.768ZM37.06-8.789V0h1.445V-8.789ZM48.331-.748V-8.789h-1.36v1.258h-.017a2.572,2.572,0,0,0-1.088-1.1,3.244,3.244,0,0,0-1.53-.366,3.914,3.914,0,0,0-1.921.434,3.728,3.728,0,0,0-1.258,1.105,4.381,4.381,0,0,0-.68,1.5,6.677,6.677,0,0,0-.2,1.606,5.82,5.82,0,0,0,.247,1.709,4.091,4.091,0,0,0,.739,1.411,3.593,3.593,0,0,0,1.224.96A3.871,3.871,0,0,0,44.2.085,3.512,3.512,0,0,0,45.806-.3a2.429,2.429,0,0,0,1.131-1.2h.034v.578A5.844,5.844,0,0,1,46.826.425a2.806,2.806,0,0,1-.467,1.045,2.266,2.266,0,0,1-.816.68,2.679,2.679,0,0,1-1.207.247,3.9,3.9,0,0,1-.748-.077,2.718,2.718,0,0,1-.722-.246,1.8,1.8,0,0,1-.561-.442,1.069,1.069,0,0,1-.247-.663H40.613a2.272,2.272,0,0,0,.374,1.207,2.693,2.693,0,0,0,.859.8A3.828,3.828,0,0,0,43,3.417a5.979,5.979,0,0,0,1.25.136,4.017,4.017,0,0,0,3.094-1.071A4.629,4.629,0,0,0,48.331-.748Zm-4.046-.425a2.207,2.207,0,0,1-1.19-.3,2.3,2.3,0,0,1-.765-.782,3.385,3.385,0,0,1-.408-1.08,6.054,6.054,0,0,1-.119-1.19,4.959,4.959,0,0,1,.145-1.207,2.992,2.992,0,0,1,.459-1.02,2.314,2.314,0,0,1,.808-.705,2.494,2.494,0,0,1,1.19-.264,2.3,2.3,0,0,1,1.156.272,2.252,2.252,0,0,1,.774.722,3.177,3.177,0,0,1,.433,1.012A4.817,4.817,0,0,1,46.9-4.573a5.31,5.31,0,0,1-.145,1.224,3.574,3.574,0,0,1-.451,1.1,2.371,2.371,0,0,1-.807.782A2.342,2.342,0,0,1,44.285-1.173ZM56.61-5.236H51.561a3.01,3.01,0,0,1,.221-.96,2.562,2.562,0,0,1,.51-.791,2.336,2.336,0,0,1,.773-.535,2.516,2.516,0,0,1,1.012-.2,2.472,2.472,0,0,1,.994.2A2.5,2.5,0,0,1,55.854-7a2.477,2.477,0,0,1,.527.791A2.956,2.956,0,0,1,56.61-5.236ZM58-2.788H56.576A2.055,2.055,0,0,1,55.8-1.5a2.5,2.5,0,0,1-1.5.425,2.993,2.993,0,0,1-1.241-.238,2.432,2.432,0,0,1-.867-.638,2.483,2.483,0,0,1-.493-.918,3.489,3.489,0,0,1-.136-1.1H58.14A7,7,0,0,0,58-5.644a4.872,4.872,0,0,0-.646-1.632,3.849,3.849,0,0,0-1.241-1.233,3.606,3.606,0,0,0-1.946-.484,4,4,0,0,0-1.658.34A3.9,3.9,0,0,0,51.2-7.7a4.388,4.388,0,0,0-.859,1.445,5.289,5.289,0,0,0-.306,1.836,7.045,7.045,0,0,0,.3,1.853,4.044,4.044,0,0,0,.791,1.462,3.6,3.6,0,0,0,1.3.952,4.515,4.515,0,0,0,1.827.34,3.989,3.989,0,0,0,2.482-.748A3.512,3.512,0,0,0,58-2.788Zm1.632-6V0h1.445V-4.964a3.56,3.56,0,0,1,.161-1.1,2.49,2.49,0,0,1,.485-.875,2.152,2.152,0,0,1,.807-.578,2.945,2.945,0,0,1,1.147-.2,1.769,1.769,0,0,1,1.309.476,1.746,1.746,0,0,1,.476,1.292V0h1.445V-5.78a5.439,5.439,0,0,0-.145-1.3,2.463,2.463,0,0,0-.5-1.011,2.376,2.376,0,0,0-.935-.663,3.814,3.814,0,0,0-1.445-.238,3.043,3.043,0,0,0-2.856,1.6H61V-8.789Zm11.458,0v-2.635H69.649v2.635h-1.5v1.275h1.5v5.593a3.34,3.34,0,0,0,.119.986,1.2,1.2,0,0,0,.366.578,1.411,1.411,0,0,0,.646.28A5.189,5.189,0,0,0,71.74,0h1.105V-1.275h-.663A4.819,4.819,0,0,1,71.63-1.3a.714.714,0,0,1-.332-.11.42.42,0,0,1-.161-.238,1.577,1.577,0,0,1-.042-.408V-7.514h1.751V-8.789Zm8.075,0V0h1.445V-5.474a2.1,2.1,0,0,1,.128-.637,2.454,2.454,0,0,1,.408-.74,2.447,2.447,0,0,1,.731-.612,2.158,2.158,0,0,1,1.079-.255,1.943,1.943,0,0,1,.808.145,1.231,1.231,0,0,1,.5.408,1.659,1.659,0,0,1,.264.621,3.735,3.735,0,0,1,.076.782V0h1.445V-5.474a2.206,2.206,0,0,1,.612-1.632,2.274,2.274,0,0,1,1.683-.612,2.061,2.061,0,0,1,.859.153,1.273,1.273,0,0,1,.518.417,1.562,1.562,0,0,1,.255.621,4.088,4.088,0,0,1,.068.765V0h1.445V-6.443a2.888,2.888,0,0,0-.213-1.164,2.042,2.042,0,0,0-.6-.79,2.486,2.486,0,0,0-.918-.451,4.6,4.6,0,0,0-1.2-.144,3.286,3.286,0,0,0-1.59.391,3.068,3.068,0,0,0-1.164,1.1,1.9,1.9,0,0,0-.935-1.156,3.193,3.193,0,0,0-1.479-.34,3.2,3.2,0,0,0-2.839,1.5h-.034V-8.789Zm20.6,3.553H94.724a3.01,3.01,0,0,1,.221-.96,2.562,2.562,0,0,1,.51-.791,2.336,2.336,0,0,1,.773-.535,2.516,2.516,0,0,1,1.011-.2,2.472,2.472,0,0,1,.994.2A2.5,2.5,0,0,1,99.017-7a2.477,2.477,0,0,1,.527.791A2.956,2.956,0,0,1,99.773-5.236Zm1.394,2.448H99.739A2.055,2.055,0,0,1,98.965-1.5a2.5,2.5,0,0,1-1.5.425,2.993,2.993,0,0,1-1.241-.238,2.432,2.432,0,0,1-.867-.638,2.483,2.483,0,0,1-.493-.918,3.489,3.489,0,0,1-.136-1.1H101.3a7,7,0,0,0-.145-1.683,4.872,4.872,0,0,0-.646-1.632,3.849,3.849,0,0,0-1.241-1.233,3.606,3.606,0,0,0-1.947-.484,4,4,0,0,0-1.657.34,3.9,3.9,0,0,0-1.309.952A4.388,4.388,0,0,0,93.5-6.256a5.289,5.289,0,0,0-.306,1.836,7.045,7.045,0,0,0,.3,1.853,4.044,4.044,0,0,0,.79,1.462,3.6,3.6,0,0,0,1.3.952,4.515,4.515,0,0,0,1.827.34,3.989,3.989,0,0,0,2.482-.748A3.512,3.512,0,0,0,101.167-2.788Zm1.581-6V0h1.445V-3.91a6.009,6.009,0,0,1,.17-1.5,2.884,2.884,0,0,1,.544-1.113,2.332,2.332,0,0,1,.986-.7,4.087,4.087,0,0,1,1.479-.238v-1.53a3.247,3.247,0,0,0-1.938.476,3.915,3.915,0,0,0-1.292,1.581h-.034V-8.789ZM115.566-.748V-8.789h-1.36v1.258h-.017a2.572,2.572,0,0,0-1.088-1.1,3.244,3.244,0,0,0-1.53-.366,3.914,3.914,0,0,0-1.921.434,3.727,3.727,0,0,0-1.258,1.105,4.381,4.381,0,0,0-.68,1.5,6.677,6.677,0,0,0-.2,1.606,5.821,5.821,0,0,0,.246,1.709,4.091,4.091,0,0,0,.74,1.411,3.593,3.593,0,0,0,1.224.96,3.871,3.871,0,0,0,1.717.357A3.512,3.512,0,0,0,113.042-.3a2.429,2.429,0,0,0,1.131-1.2h.034v.578a5.844,5.844,0,0,1-.145,1.343,2.806,2.806,0,0,1-.467,1.045,2.266,2.266,0,0,1-.816.68,2.679,2.679,0,0,1-1.207.247,3.9,3.9,0,0,1-.748-.077,2.718,2.718,0,0,1-.723-.246,1.8,1.8,0,0,1-.561-.442,1.069,1.069,0,0,1-.246-.663h-1.445a2.272,2.272,0,0,0,.374,1.207,2.693,2.693,0,0,0,.859.8,3.828,3.828,0,0,0,1.156.442,5.979,5.979,0,0,0,1.25.136,4.017,4.017,0,0,0,3.094-1.071A4.629,4.629,0,0,0,115.566-.748Zm-4.046-.425a2.207,2.207,0,0,1-1.19-.3,2.3,2.3,0,0,1-.765-.782,3.385,3.385,0,0,1-.408-1.08,6.054,6.054,0,0,1-.119-1.19,4.959,4.959,0,0,1,.145-1.207,2.992,2.992,0,0,1,.459-1.02,2.314,2.314,0,0,1,.808-.705,2.494,2.494,0,0,1,1.19-.264,2.3,2.3,0,0,1,1.156.272,2.252,2.252,0,0,1,.773.722A3.177,3.177,0,0,1,114-5.712a4.818,4.818,0,0,1,.136,1.139,5.31,5.31,0,0,1-.145,1.224,3.574,3.574,0,0,1-.45,1.1,2.371,2.371,0,0,1-.808.782A2.342,2.342,0,0,1,111.52-1.173Zm12.325-4.063H118.8a3.01,3.01,0,0,1,.221-.96,2.562,2.562,0,0,1,.51-.791,2.336,2.336,0,0,1,.773-.535,2.516,2.516,0,0,1,1.011-.2,2.472,2.472,0,0,1,.995.2,2.5,2.5,0,0,1,.782.527,2.477,2.477,0,0,1,.527.791A2.956,2.956,0,0,1,123.845-5.236Zm1.394,2.448h-1.428a2.055,2.055,0,0,1-.773,1.292,2.5,2.5,0,0,1-1.5.425,2.993,2.993,0,0,1-1.241-.238,2.432,2.432,0,0,1-.867-.638,2.483,2.483,0,0,1-.493-.918,3.489,3.489,0,0,1-.136-1.1h6.579a7,7,0,0,0-.145-1.683,4.872,4.872,0,0,0-.646-1.632,3.849,3.849,0,0,0-1.241-1.233,3.606,3.606,0,0,0-1.946-.484,4,4,0,0,0-1.658.34,3.9,3.9,0,0,0-1.309.952,4.388,4.388,0,0,0-.858,1.445,5.289,5.289,0,0,0-.306,1.836,7.045,7.045,0,0,0,.3,1.853,4.044,4.044,0,0,0,.79,1.462,3.6,3.6,0,0,0,1.3.952,4.515,4.515,0,0,0,1.827.34,3.989,3.989,0,0,0,2.482-.748A3.512,3.512,0,0,0,125.239-2.788Z" transform="translate(1148 450)"/><rect width="141" height="18" rx="4" transform="translate(1141 338)" fill="rgba(128,134,155,0.49)"/><rect width="141" height="41" rx="4" transform="translate(1141 361)" fill="#80869b"/><path d="M.836-7.854H4.3a3.293,3.293,0,0,1,1.364.242,2.153,2.153,0,0,1,.814.6,2.055,2.055,0,0,1,.39.792,3.364,3.364,0,0,1,.1.792,3.3,3.3,0,0,1-.1.786,2.058,2.058,0,0,1-.39.786,2.106,2.106,0,0,1-.814.6A3.361,3.361,0,0,1,4.3-3.014H2.211V0H.836ZM2.211-4.136H4.224A1.793,1.793,0,0,0,4.7-4.2a1.354,1.354,0,0,0,.445-.214,1.1,1.1,0,0,0,.33-.4A1.359,1.359,0,0,0,5.6-5.434a1.607,1.607,0,0,0-.11-.638,1.019,1.019,0,0,0-.3-.4,1.057,1.057,0,0,0-.429-.2,2.329,2.329,0,0,0-.517-.055H2.211ZM8-5.687H9.174v1.1H9.2a1.269,1.269,0,0,1,.214-.451,2.092,2.092,0,0,1,.385-.4,1.946,1.946,0,0,1,.5-.292,1.5,1.5,0,0,1,.561-.11,2.721,2.721,0,0,1,.3.011l.17.022V-4.6q-.132-.022-.269-.038a2.261,2.261,0,0,0-.269-.016,1.441,1.441,0,0,0-.6.126,1.377,1.377,0,0,0-.49.374,1.833,1.833,0,0,0-.33.611,2.642,2.642,0,0,0-.121.836V0H8ZM14.278.154a3.1,3.1,0,0,1-1.215-.226,2.592,2.592,0,0,1-.9-.622,2.658,2.658,0,0,1-.561-.946,3.641,3.641,0,0,1-.193-1.21,3.606,3.606,0,0,1,.193-1.2,2.658,2.658,0,0,1,.561-.946,2.592,2.592,0,0,1,.9-.622,3.1,3.1,0,0,1,1.215-.226,3.1,3.1,0,0,1,1.215.226,2.592,2.592,0,0,1,.9.622,2.658,2.658,0,0,1,.561.946,3.606,3.606,0,0,1,.193,1.2,3.641,3.641,0,0,1-.193,1.21,2.658,2.658,0,0,1-.561.946,2.592,2.592,0,0,1-.9.622A3.1,3.1,0,0,1,14.278.154Zm0-.99A1.439,1.439,0,0,0,15-1.012a1.53,1.53,0,0,0,.506-.462,2.016,2.016,0,0,0,.292-.643,2.879,2.879,0,0,0,.093-.732,2.9,2.9,0,0,0-.093-.726,1.946,1.946,0,0,0-.292-.644A1.554,1.554,0,0,0,15-4.675a1.439,1.439,0,0,0-.726-.176,1.439,1.439,0,0,0-.726.176,1.554,1.554,0,0,0-.506.457,1.946,1.946,0,0,0-.292.644,2.9,2.9,0,0,0-.094.726,2.879,2.879,0,0,0,.094.732,2.016,2.016,0,0,0,.292.643,1.53,1.53,0,0,0,.506.462A1.439,1.439,0,0,0,14.278-.836Zm3.949-4.851h1.188v.77h.022a1.551,1.551,0,0,1,.737-.71A2.448,2.448,0,0,1,21.2-5.841a2.716,2.716,0,0,1,1.171.236,2.31,2.31,0,0,1,.831.649,2.819,2.819,0,0,1,.495.963,4.077,4.077,0,0,1,.165,1.177,4.163,4.163,0,0,1-.149,1.111,2.89,2.89,0,0,1-.451.952,2.255,2.255,0,0,1-.764.66,2.274,2.274,0,0,1-1.089.248,3.1,3.1,0,0,1-.55-.05,2.375,2.375,0,0,1-.528-.159,2.082,2.082,0,0,1-.468-.281,1.555,1.555,0,0,1-.358-.4h-.022V2.1H18.227ZM22.6-2.838a2.83,2.83,0,0,0-.1-.748,2.032,2.032,0,0,0-.3-.643,1.534,1.534,0,0,0-.495-.451,1.345,1.345,0,0,0-.682-.171,1.383,1.383,0,0,0-1.193.55,2.427,2.427,0,0,0-.4,1.463,2.913,2.913,0,0,0,.1.8,1.8,1.8,0,0,0,.313.632,1.566,1.566,0,0,0,.5.418,1.427,1.427,0,0,0,.676.154,1.4,1.4,0,0,0,.726-.176,1.535,1.535,0,0,0,.49-.456,1.851,1.851,0,0,0,.275-.638A3.243,3.243,0,0,0,22.6-2.838Zm6.215-.506a2.022,2.022,0,0,0-.127-.572,1.524,1.524,0,0,0-.286-.479,1.416,1.416,0,0,0-.44-.33,1.3,1.3,0,0,0-.577-.127,1.507,1.507,0,0,0-.6.116,1.371,1.371,0,0,0-.462.319,1.578,1.578,0,0,0-.308.478,1.669,1.669,0,0,0-.127.594Zm-2.926.825a2.184,2.184,0,0,0,.094.638,1.572,1.572,0,0,0,.281.539,1.352,1.352,0,0,0,.473.368,1.561,1.561,0,0,0,.682.138,1.506,1.506,0,0,0,.885-.237,1.4,1.4,0,0,0,.5-.71H30a2.364,2.364,0,0,1-.341.825,2.373,2.373,0,0,1-.583.61,2.516,2.516,0,0,1-.764.374,3.077,3.077,0,0,1-.885.126,3.011,3.011,0,0,1-1.188-.22,2.456,2.456,0,0,1-.875-.616,2.614,2.614,0,0,1-.539-.946,3.843,3.843,0,0,1-.181-1.21,3.423,3.423,0,0,1,.192-1.15,2.943,2.943,0,0,1,.55-.957,2.63,2.63,0,0,1,.863-.655,2.619,2.619,0,0,1,1.144-.242,2.549,2.549,0,0,1,1.2.28,2.643,2.643,0,0,1,.885.743,3.006,3.006,0,0,1,.511,1.061,3.254,3.254,0,0,1,.083,1.238Zm5.137-3.168h1.177v1.1h.022a1.269,1.269,0,0,1,.215-.451,2.092,2.092,0,0,1,.385-.4,1.946,1.946,0,0,1,.5-.292,1.5,1.5,0,0,1,.561-.11,2.721,2.721,0,0,1,.3.011l.17.022V-4.6q-.132-.022-.269-.038a2.261,2.261,0,0,0-.27-.016,1.441,1.441,0,0,0-.6.126,1.377,1.377,0,0,0-.49.374,1.833,1.833,0,0,0-.33.611,2.642,2.642,0,0,0-.121.836V0H31.031Zm3.3,0h.946v-1.7h1.254v1.7h1.133v.935H36.531v3.036a3.028,3.028,0,0,0,.017.341.589.589,0,0,0,.077.242.368.368,0,0,0,.181.148.893.893,0,0,0,.33.05q.132,0,.264-.006a1.311,1.311,0,0,0,.264-.039v.968l-.407.044a3.684,3.684,0,0,1-.407.022,2.776,2.776,0,0,1-.8-.093,1.065,1.065,0,0,1-.473-.275.949.949,0,0,1-.231-.456,3.435,3.435,0,0,1-.071-.627V-4.752h-.946Zm3.608,0h1.375L40.8-1.441h.022l1.441-4.246h1.309l-2.211,6q-.154.385-.3.737a2.638,2.638,0,0,1-.363.622,1.569,1.569,0,0,1-.534.429,1.818,1.818,0,0,1-.814.159,5.707,5.707,0,0,1-.869-.066V1.133q.154.022.3.049a1.57,1.57,0,0,0,.3.028,1.022,1.022,0,0,0,.363-.055A.6.6,0,0,0,39.671,1a.99.99,0,0,0,.16-.247,2.421,2.421,0,0,0,.121-.33l.143-.44Z" transform="translate(1146 351)" fill="#fff"/><path d="M.8-7.854H2.178V-4.73H5.753V-7.854H7.128V0H5.753V-3.542H2.178V0H.8ZM13.365-1.265a.665.665,0,0,0,.061.33.255.255,0,0,0,.236.1h.132a.822.822,0,0,0,.176-.022V.011Q13.9.033,13.8.06T13.585.11q-.11.022-.22.033t-.187.011A1.209,1.209,0,0,1,12.54,0a.767.767,0,0,1-.33-.539,2.218,2.218,0,0,1-.918.528,3.617,3.617,0,0,1-1.05.165A2.576,2.576,0,0,1,9.5.049a1.934,1.934,0,0,1-.622-.308,1.476,1.476,0,0,1-.429-.517,1.593,1.593,0,0,1-.16-.731,1.689,1.689,0,0,1,.193-.858,1.426,1.426,0,0,1,.506-.517,2.285,2.285,0,0,1,.7-.27q.39-.083.786-.127a6.435,6.435,0,0,1,.649-.093,3.046,3.046,0,0,0,.545-.094.834.834,0,0,0,.374-.2.56.56,0,0,0,.137-.412.642.642,0,0,0-.115-.4.775.775,0,0,0-.286-.236,1.235,1.235,0,0,0-.38-.11,3.041,3.041,0,0,0-.4-.028,1.575,1.575,0,0,0-.869.22.858.858,0,0,0-.385.682H8.5a1.888,1.888,0,0,1,.264-.913,1.824,1.824,0,0,1,.589-.583,2.408,2.408,0,0,1,.808-.308,4.814,4.814,0,0,1,.924-.088,3.893,3.893,0,0,1,.825.088,2.343,2.343,0,0,1,.732.286,1.584,1.584,0,0,1,.522.511,1.4,1.4,0,0,1,.2.765ZM12.111-2.849a1.522,1.522,0,0,1-.7.226q-.418.038-.836.115a2.68,2.68,0,0,0-.385.093,1.16,1.16,0,0,0-.33.165.724.724,0,0,0-.226.275.94.94,0,0,0-.082.412.526.526,0,0,0,.121.352.879.879,0,0,0,.292.225,1.35,1.35,0,0,0,.374.116,2.322,2.322,0,0,0,.369.033,2.042,2.042,0,0,0,.451-.055,1.5,1.5,0,0,0,.457-.187,1.2,1.2,0,0,0,.358-.336.849.849,0,0,0,.143-.5Zm3.553,1.023a.945.945,0,0,0,.418.77,1.645,1.645,0,0,0,.869.22,3.356,3.356,0,0,0,.4-.028,1.747,1.747,0,0,0,.424-.1.8.8,0,0,0,.325-.225.541.541,0,0,0,.115-.39.554.554,0,0,0-.176-.4,1.219,1.219,0,0,0-.424-.247,4.1,4.1,0,0,0-.588-.159q-.33-.066-.671-.143a6.3,6.3,0,0,1-.677-.187,2.183,2.183,0,0,1-.583-.3,1.372,1.372,0,0,1-.413-.478,1.529,1.529,0,0,1-.154-.72,1.293,1.293,0,0,1,.226-.776,1.729,1.729,0,0,1,.572-.506,2.491,2.491,0,0,1,.77-.269,4.523,4.523,0,0,1,.809-.077,3.7,3.7,0,0,1,.841.094,2.287,2.287,0,0,1,.726.3,1.776,1.776,0,0,1,.539.545,1.885,1.885,0,0,1,.269.808H17.974a.781.781,0,0,0-.412-.605,1.712,1.712,0,0,0-.743-.154,2.657,2.657,0,0,0-.314.022,1.45,1.45,0,0,0-.341.082.717.717,0,0,0-.269.176.42.42,0,0,0-.11.3.479.479,0,0,0,.16.374,1.262,1.262,0,0,0,.418.237,4.1,4.1,0,0,0,.589.16q.33.066.682.143t.671.187a2.164,2.164,0,0,1,.588.3,1.443,1.443,0,0,1,.418.473,1.428,1.428,0,0,1,.16.7,1.53,1.53,0,0,1-.231.858,1.827,1.827,0,0,1-.6.572,2.727,2.727,0,0,1-.819.319,4.147,4.147,0,0,1-.891.1,3.878,3.878,0,0,1-1-.121,2.32,2.32,0,0,1-.792-.369,1.78,1.78,0,0,1-.528-.616,1.959,1.959,0,0,1-.2-.875Zm7.821-3.861h1.188v.792h.033a3.22,3.22,0,0,1,.308-.385,1.68,1.68,0,0,1,.369-.3,1.864,1.864,0,0,1,.467-.193,2.321,2.321,0,0,1,.605-.071,2.06,2.06,0,0,1,.962.231,1.306,1.306,0,0,1,.633.715,2.531,2.531,0,0,1,.737-.693,1.987,1.987,0,0,1,1.045-.253,2.054,2.054,0,0,1,1.4.44,1.878,1.878,0,0,1,.5,1.474V0H30.481V-3.322q0-.341-.022-.622a1.269,1.269,0,0,0-.126-.484.719.719,0,0,0-.313-.313,1.239,1.239,0,0,0-.572-.11,1.062,1.062,0,0,0-.924.4,1.893,1.893,0,0,0-.286,1.122V0H26.983V-3.652a1.548,1.548,0,0,0-.215-.9.9.9,0,0,0-.787-.3,1.151,1.151,0,0,0-.468.1,1.165,1.165,0,0,0-.4.286A1.432,1.432,0,0,0,24.844-4a1.756,1.756,0,0,0-.1.627V0H23.485ZM36.96-3.344a2.022,2.022,0,0,0-.126-.572,1.524,1.524,0,0,0-.286-.479,1.416,1.416,0,0,0-.44-.33,1.3,1.3,0,0,0-.578-.127,1.507,1.507,0,0,0-.6.116,1.371,1.371,0,0,0-.462.319,1.578,1.578,0,0,0-.308.478,1.669,1.669,0,0,0-.126.594Zm-2.926.825a2.184,2.184,0,0,0,.093.638,1.572,1.572,0,0,0,.281.539,1.352,1.352,0,0,0,.473.368,1.561,1.561,0,0,0,.682.138,1.506,1.506,0,0,0,.886-.237,1.4,1.4,0,0,0,.5-.71h1.188a2.364,2.364,0,0,1-.341.825,2.373,2.373,0,0,1-.583.61,2.516,2.516,0,0,1-.764.374,3.077,3.077,0,0,1-.886.126,3.011,3.011,0,0,1-1.188-.22A2.456,2.456,0,0,1,33.5-.682a2.614,2.614,0,0,1-.539-.946,3.843,3.843,0,0,1-.182-1.21,3.423,3.423,0,0,1,.193-1.15,2.943,2.943,0,0,1,.55-.957,2.63,2.63,0,0,1,.864-.655,2.619,2.619,0,0,1,1.144-.242,2.549,2.549,0,0,1,1.2.28,2.643,2.643,0,0,1,.885.743,3.006,3.006,0,0,1,.512,1.061,3.254,3.254,0,0,1,.083,1.238ZM38.6-5.687h.946v-1.7H40.8v1.7h1.133v.935H40.8v3.036a3.029,3.029,0,0,0,.016.341.589.589,0,0,0,.077.242.368.368,0,0,0,.181.148.893.893,0,0,0,.33.05q.132,0,.264-.006a1.311,1.311,0,0,0,.264-.039v.968l-.407.044a3.684,3.684,0,0,1-.407.022,2.776,2.776,0,0,1-.8-.093,1.065,1.065,0,0,1-.473-.275.949.949,0,0,1-.231-.456,3.435,3.435,0,0,1-.071-.627V-4.752H38.6Zm4.235-2.167h1.254v2.915h.022a1.827,1.827,0,0,1,.688-.643,2.029,2.029,0,0,1,1.017-.259,2.126,2.126,0,0,1,1.474.484A1.852,1.852,0,0,1,47.828-3.9V0H46.574V-3.575a1.545,1.545,0,0,0-.286-.974,1.039,1.039,0,0,0-.825-.3,1.362,1.362,0,0,0-.572.116,1.24,1.24,0,0,0-.429.319,1.5,1.5,0,0,0-.275.478,1.708,1.708,0,0,0-.1.583V0H42.834ZM51.755.154a3.1,3.1,0,0,1-1.215-.226,2.592,2.592,0,0,1-.9-.622,2.658,2.658,0,0,1-.561-.946,3.641,3.641,0,0,1-.193-1.21,3.606,3.606,0,0,1,.193-1.2,2.658,2.658,0,0,1,.561-.946,2.592,2.592,0,0,1,.9-.622,3.1,3.1,0,0,1,1.215-.226,3.1,3.1,0,0,1,1.215.226,2.592,2.592,0,0,1,.9.622,2.658,2.658,0,0,1,.561.946,3.606,3.606,0,0,1,.193,1.2,3.641,3.641,0,0,1-.193,1.21,2.658,2.658,0,0,1-.561.946,2.592,2.592,0,0,1-.9.622A3.1,3.1,0,0,1,51.755.154Zm0-.99a1.439,1.439,0,0,0,.726-.176,1.53,1.53,0,0,0,.506-.462,2.016,2.016,0,0,0,.292-.643,2.879,2.879,0,0,0,.093-.732,2.9,2.9,0,0,0-.093-.726,1.946,1.946,0,0,0-.292-.644,1.554,1.554,0,0,0-.506-.457,1.439,1.439,0,0,0-.726-.176,1.439,1.439,0,0,0-.726.176,1.554,1.554,0,0,0-.506.457,1.946,1.946,0,0,0-.292.644,2.9,2.9,0,0,0-.093.726,2.879,2.879,0,0,0,.093.732,2.016,2.016,0,0,0,.292.643,1.53,1.53,0,0,0,.506.462A1.439,1.439,0,0,0,51.755-.836ZM61.028,0H59.84V-.77h-.022a1.489,1.489,0,0,1-.737.709,2.5,2.5,0,0,1-1.023.214,2.716,2.716,0,0,1-1.172-.236,2.337,2.337,0,0,1-.831-.644,2.754,2.754,0,0,1-.495-.963A4.173,4.173,0,0,1,55.4-2.882a3.814,3.814,0,0,1,.209-1.331,2.665,2.665,0,0,1,.556-.924,2.147,2.147,0,0,1,.792-.534,2.52,2.52,0,0,1,.907-.17,3.039,3.039,0,0,1,.539.049,2.375,2.375,0,0,1,.528.159,2.082,2.082,0,0,1,.467.281,1.555,1.555,0,0,1,.358.4h.022v-2.9h1.254ZM56.65-2.783a2.774,2.774,0,0,0,.093.715,1.96,1.96,0,0,0,.286.627,1.447,1.447,0,0,0,.489.44,1.427,1.427,0,0,0,.7.165,1.408,1.408,0,0,0,.721-.176,1.494,1.494,0,0,0,.5-.462,2.089,2.089,0,0,0,.286-.643,2.879,2.879,0,0,0,.093-.732,2.3,2.3,0,0,0-.424-1.474,1.4,1.4,0,0,0-1.149-.528,1.419,1.419,0,0,0-.743.182,1.526,1.526,0,0,0-.5.473,1.965,1.965,0,0,0-.275.66A3.438,3.438,0,0,0,56.65-2.783Zm6.688.957a.945.945,0,0,0,.418.77,1.645,1.645,0,0,0,.869.22,3.356,3.356,0,0,0,.4-.028,1.747,1.747,0,0,0,.424-.1.8.8,0,0,0,.325-.225.541.541,0,0,0,.116-.39.554.554,0,0,0-.176-.4,1.22,1.22,0,0,0-.424-.247,4.1,4.1,0,0,0-.589-.159q-.33-.066-.671-.143a6.3,6.3,0,0,1-.676-.187,2.183,2.183,0,0,1-.583-.3,1.372,1.372,0,0,1-.413-.478,1.529,1.529,0,0,1-.154-.72,1.293,1.293,0,0,1,.226-.776A1.729,1.729,0,0,1,63-5.495a2.491,2.491,0,0,1,.77-.269,4.523,4.523,0,0,1,.809-.077,3.7,3.7,0,0,1,.841.094,2.287,2.287,0,0,1,.726.3,1.776,1.776,0,0,1,.539.545,1.885,1.885,0,0,1,.27.808H65.648a.781.781,0,0,0-.412-.605,1.712,1.712,0,0,0-.743-.154,2.657,2.657,0,0,0-.313.022,1.45,1.45,0,0,0-.341.082.717.717,0,0,0-.269.176.42.42,0,0,0-.11.3.479.479,0,0,0,.16.374,1.262,1.262,0,0,0,.418.237,4.1,4.1,0,0,0,.589.16q.33.066.682.143t.671.187a2.164,2.164,0,0,1,.589.3,1.443,1.443,0,0,1,.418.473,1.428,1.428,0,0,1,.16.7,1.53,1.53,0,0,1-.231.858,1.827,1.827,0,0,1-.6.572,2.727,2.727,0,0,1-.82.319,4.147,4.147,0,0,1-.891.1,3.878,3.878,0,0,1-1-.121,2.32,2.32,0,0,1-.792-.369,1.78,1.78,0,0,1-.528-.616,1.959,1.959,0,0,1-.2-.875ZM.814,8.146H2.75L4.917,14.3h.022L7.051,8.146H8.965V16H7.656V9.939H7.634L5.456,16H4.323L2.145,9.939H2.123V16H.814Zm13.53,4.51a2.022,2.022,0,0,0-.126-.572,1.524,1.524,0,0,0-.286-.479,1.416,1.416,0,0,0-.44-.33,1.3,1.3,0,0,0-.578-.126,1.507,1.507,0,0,0-.6.115,1.371,1.371,0,0,0-.462.319,1.578,1.578,0,0,0-.308.479,1.669,1.669,0,0,0-.127.594Zm-2.926.825a2.184,2.184,0,0,0,.094.638,1.572,1.572,0,0,0,.28.539,1.352,1.352,0,0,0,.473.368,1.561,1.561,0,0,0,.682.137,1.506,1.506,0,0,0,.885-.236,1.4,1.4,0,0,0,.5-.709h1.188a2.358,2.358,0,0,1-.924,1.435,2.516,2.516,0,0,1-.764.374,3.077,3.077,0,0,1-.885.126,3.011,3.011,0,0,1-1.188-.22,2.456,2.456,0,0,1-.875-.616,2.614,2.614,0,0,1-.539-.946,3.843,3.843,0,0,1-.181-1.21,3.423,3.423,0,0,1,.193-1.15,2.943,2.943,0,0,1,.55-.957,2.58,2.58,0,0,1,2.008-.9,2.549,2.549,0,0,1,1.2.28,2.643,2.643,0,0,1,.885.743,3.006,3.006,0,0,1,.512,1.061,3.254,3.254,0,0,1,.082,1.238Zm4.565-3.168h.946v-1.7h1.254v1.7h1.133v.935H18.183v3.036a3.028,3.028,0,0,0,.017.341.589.589,0,0,0,.077.242.368.368,0,0,0,.181.149.893.893,0,0,0,.33.049q.132,0,.264-.005a1.311,1.311,0,0,0,.264-.038v.968l-.407.044a3.684,3.684,0,0,1-.407.022,2.776,2.776,0,0,1-.8-.094,1.065,1.065,0,0,1-.473-.275A.949.949,0,0,1,17,15.23a3.435,3.435,0,0,1-.071-.627V11.248h-.946Zm4.235-2.167h1.254v2.915h.022a1.827,1.827,0,0,1,.687-.644,2.029,2.029,0,0,1,1.018-.258,2.126,2.126,0,0,1,1.474.484,1.852,1.852,0,0,1,.539,1.452V16H23.958V12.425a1.545,1.545,0,0,0-.286-.974,1.039,1.039,0,0,0-.825-.3,1.362,1.362,0,0,0-.572.115,1.24,1.24,0,0,0-.429.319,1.5,1.5,0,0,0-.275.479,1.708,1.708,0,0,0-.1.583V16H20.218Zm8.921,8.008a3.1,3.1,0,0,1-1.215-.225,2.592,2.592,0,0,1-.9-.622,2.658,2.658,0,0,1-.561-.946,3.865,3.865,0,0,1,0-2.409,2.658,2.658,0,0,1,.561-.946,2.592,2.592,0,0,1,.9-.622,3.389,3.389,0,0,1,2.431,0,2.592,2.592,0,0,1,.9.622,2.658,2.658,0,0,1,.561.946,3.864,3.864,0,0,1,0,2.409,2.658,2.658,0,0,1-.561.946,2.592,2.592,0,0,1-.9.622A3.1,3.1,0,0,1,29.139,16.154Zm0-.99a1.439,1.439,0,0,0,.726-.176,1.53,1.53,0,0,0,.506-.462,2.016,2.016,0,0,0,.292-.644,2.887,2.887,0,0,0,0-1.457,1.946,1.946,0,0,0-.292-.644,1.554,1.554,0,0,0-.506-.457,1.585,1.585,0,0,0-1.452,0,1.554,1.554,0,0,0-.506.457,1.946,1.946,0,0,0-.292.644,2.887,2.887,0,0,0,0,1.457,2.016,2.016,0,0,0,.292.644,1.53,1.53,0,0,0,.506.462A1.439,1.439,0,0,0,29.139,15.164ZM38.412,16H37.224v-.77H37.2a1.489,1.489,0,0,1-.737.71,2.5,2.5,0,0,1-1.023.214,2.716,2.716,0,0,1-1.172-.236,2.337,2.337,0,0,1-.831-.643,2.754,2.754,0,0,1-.495-.963,4.173,4.173,0,0,1-.165-1.193,3.814,3.814,0,0,1,.209-1.331,2.665,2.665,0,0,1,.556-.924,2.147,2.147,0,0,1,.792-.533,2.52,2.52,0,0,1,.907-.17,3.039,3.039,0,0,1,.539.049,2.375,2.375,0,0,1,.528.16,2.082,2.082,0,0,1,.467.281,1.555,1.555,0,0,1,.358.4h.022v-2.9h1.254Zm-4.378-2.783a2.774,2.774,0,0,0,.093.715,1.96,1.96,0,0,0,.286.627A1.447,1.447,0,0,0,34.9,15a1.427,1.427,0,0,0,.7.165,1.408,1.408,0,0,0,.72-.176,1.494,1.494,0,0,0,.5-.462,2.089,2.089,0,0,0,.286-.644,2.879,2.879,0,0,0,.093-.731,2.3,2.3,0,0,0-.424-1.474,1.4,1.4,0,0,0-1.149-.528,1.419,1.419,0,0,0-.743.181,1.526,1.526,0,0,0-.495.473,1.965,1.965,0,0,0-.275.66A3.438,3.438,0,0,0,34.034,13.217Zm6.688.957a.945.945,0,0,0,.418.77,1.645,1.645,0,0,0,.869.22,3.356,3.356,0,0,0,.4-.027,1.747,1.747,0,0,0,.424-.1.8.8,0,0,0,.325-.225.541.541,0,0,0,.116-.391.554.554,0,0,0-.176-.4,1.219,1.219,0,0,0-.424-.248,4.1,4.1,0,0,0-.588-.16q-.33-.066-.671-.143a6.3,6.3,0,0,1-.676-.187,2.183,2.183,0,0,1-.583-.3,1.372,1.372,0,0,1-.413-.479,1.529,1.529,0,0,1-.154-.72,1.293,1.293,0,0,1,.226-.776,1.729,1.729,0,0,1,.572-.506,2.491,2.491,0,0,1,.77-.269,4.523,4.523,0,0,1,.808-.077,3.7,3.7,0,0,1,.841.094,2.287,2.287,0,0,1,.726.3,1.776,1.776,0,0,1,.539.545,1.885,1.885,0,0,1,.269.808H43.032a.781.781,0,0,0-.412-.605,1.712,1.712,0,0,0-.743-.154,2.657,2.657,0,0,0-.314.022,1.45,1.45,0,0,0-.341.083.717.717,0,0,0-.269.176.42.42,0,0,0-.11.3.479.479,0,0,0,.16.374,1.262,1.262,0,0,0,.418.236,4.1,4.1,0,0,0,.589.16q.33.066.682.143t.671.187a2.164,2.164,0,0,1,.589.3,1.443,1.443,0,0,1,.418.473,1.428,1.428,0,0,1,.16.7,1.53,1.53,0,0,1-.231.858,1.827,1.827,0,0,1-.6.572,2.727,2.727,0,0,1-.819.319,4.147,4.147,0,0,1-.891.1,3.878,3.878,0,0,1-1-.121,2.32,2.32,0,0,1-.792-.369,1.78,1.78,0,0,1-.528-.616,1.959,1.959,0,0,1-.2-.875Z" transform="translate(1146 378)" fill="#fff"/><rect width="141" height="18" rx="4" transform="translate(1141 407)" fill="rgba(128,134,155,0.49)"/><path d="M.836-7.854H4.3a3.293,3.293,0,0,1,1.364.242,2.153,2.153,0,0,1,.814.6,2.055,2.055,0,0,1,.39.792,3.364,3.364,0,0,1,.1.792,3.3,3.3,0,0,1-.1.786,2.058,2.058,0,0,1-.39.786,2.106,2.106,0,0,1-.814.6A3.361,3.361,0,0,1,4.3-3.014H2.211V0H.836ZM2.211-4.136H4.224A1.793,1.793,0,0,0,4.7-4.2a1.354,1.354,0,0,0,.445-.214,1.1,1.1,0,0,0,.33-.4A1.359,1.359,0,0,0,5.6-5.434a1.607,1.607,0,0,0-.11-.638,1.019,1.019,0,0,0-.3-.4,1.057,1.057,0,0,0-.429-.2,2.329,2.329,0,0,0-.517-.055H2.211ZM8-5.687H9.174v1.1H9.2a1.269,1.269,0,0,1,.214-.451,2.092,2.092,0,0,1,.385-.4,1.946,1.946,0,0,1,.5-.292,1.5,1.5,0,0,1,.561-.11,2.721,2.721,0,0,1,.3.011l.17.022V-4.6q-.132-.022-.269-.038a2.261,2.261,0,0,0-.269-.016,1.441,1.441,0,0,0-.6.126,1.377,1.377,0,0,0-.49.374,1.833,1.833,0,0,0-.33.611,2.642,2.642,0,0,0-.121.836V0H8ZM14.278.154a3.1,3.1,0,0,1-1.215-.226,2.592,2.592,0,0,1-.9-.622,2.658,2.658,0,0,1-.561-.946,3.641,3.641,0,0,1-.193-1.21,3.606,3.606,0,0,1,.193-1.2,2.658,2.658,0,0,1,.561-.946,2.592,2.592,0,0,1,.9-.622,3.1,3.1,0,0,1,1.215-.226,3.1,3.1,0,0,1,1.215.226,2.592,2.592,0,0,1,.9.622,2.658,2.658,0,0,1,.561.946,3.606,3.606,0,0,1,.193,1.2,3.641,3.641,0,0,1-.193,1.21,2.658,2.658,0,0,1-.561.946,2.592,2.592,0,0,1-.9.622A3.1,3.1,0,0,1,14.278.154Zm0-.99A1.439,1.439,0,0,0,15-1.012a1.53,1.53,0,0,0,.506-.462,2.016,2.016,0,0,0,.292-.643,2.879,2.879,0,0,0,.093-.732,2.9,2.9,0,0,0-.093-.726,1.946,1.946,0,0,0-.292-.644A1.554,1.554,0,0,0,15-4.675a1.439,1.439,0,0,0-.726-.176,1.439,1.439,0,0,0-.726.176,1.554,1.554,0,0,0-.506.457,1.946,1.946,0,0,0-.292.644,2.9,2.9,0,0,0-.094.726,2.879,2.879,0,0,0,.094.732,2.016,2.016,0,0,0,.292.643,1.53,1.53,0,0,0,.506.462A1.439,1.439,0,0,0,14.278-.836Zm3.949-4.851h1.188v.77h.022a1.551,1.551,0,0,1,.737-.71A2.448,2.448,0,0,1,21.2-5.841a2.716,2.716,0,0,1,1.171.236,2.31,2.31,0,0,1,.831.649,2.819,2.819,0,0,1,.495.963,4.077,4.077,0,0,1,.165,1.177,4.163,4.163,0,0,1-.149,1.111,2.89,2.89,0,0,1-.451.952,2.255,2.255,0,0,1-.764.66,2.274,2.274,0,0,1-1.089.248,3.1,3.1,0,0,1-.55-.05,2.375,2.375,0,0,1-.528-.159,2.082,2.082,0,0,1-.468-.281,1.555,1.555,0,0,1-.358-.4h-.022V2.1H18.227ZM22.6-2.838a2.83,2.83,0,0,0-.1-.748,2.032,2.032,0,0,0-.3-.643,1.534,1.534,0,0,0-.495-.451,1.345,1.345,0,0,0-.682-.171,1.383,1.383,0,0,0-1.193.55,2.427,2.427,0,0,0-.4,1.463,2.913,2.913,0,0,0,.1.8,1.8,1.8,0,0,0,.313.632,1.566,1.566,0,0,0,.5.418,1.427,1.427,0,0,0,.676.154,1.4,1.4,0,0,0,.726-.176,1.535,1.535,0,0,0,.49-.456,1.851,1.851,0,0,0,.275-.638A3.243,3.243,0,0,0,22.6-2.838Zm6.215-.506a2.022,2.022,0,0,0-.127-.572,1.524,1.524,0,0,0-.286-.479,1.416,1.416,0,0,0-.44-.33,1.3,1.3,0,0,0-.577-.127,1.507,1.507,0,0,0-.6.116,1.371,1.371,0,0,0-.462.319,1.578,1.578,0,0,0-.308.478,1.669,1.669,0,0,0-.127.594Zm-2.926.825a2.184,2.184,0,0,0,.094.638,1.572,1.572,0,0,0,.281.539,1.352,1.352,0,0,0,.473.368,1.561,1.561,0,0,0,.682.138,1.506,1.506,0,0,0,.885-.237,1.4,1.4,0,0,0,.5-.71H30a2.364,2.364,0,0,1-.341.825,2.373,2.373,0,0,1-.583.61,2.516,2.516,0,0,1-.764.374,3.077,3.077,0,0,1-.885.126,3.011,3.011,0,0,1-1.188-.22,2.456,2.456,0,0,1-.875-.616,2.614,2.614,0,0,1-.539-.946,3.843,3.843,0,0,1-.181-1.21,3.423,3.423,0,0,1,.192-1.15,2.943,2.943,0,0,1,.55-.957,2.63,2.63,0,0,1,.863-.655,2.619,2.619,0,0,1,1.144-.242,2.549,2.549,0,0,1,1.2.28,2.643,2.643,0,0,1,.885.743,3.006,3.006,0,0,1,.511,1.061,3.254,3.254,0,0,1,.083,1.238Zm5.137-3.168h1.177v1.1h.022a1.269,1.269,0,0,1,.215-.451,2.092,2.092,0,0,1,.385-.4,1.946,1.946,0,0,1,.5-.292,1.5,1.5,0,0,1,.561-.11,2.721,2.721,0,0,1,.3.011l.17.022V-4.6q-.132-.022-.269-.038a2.261,2.261,0,0,0-.27-.016,1.441,1.441,0,0,0-.6.126,1.377,1.377,0,0,0-.49.374,1.833,1.833,0,0,0-.33.611,2.642,2.642,0,0,0-.121.836V0H31.031Zm3.3,0h.946v-1.7h1.254v1.7h1.133v.935H36.531v3.036a3.028,3.028,0,0,0,.017.341.589.589,0,0,0,.077.242.368.368,0,0,0,.181.148.893.893,0,0,0,.33.05q.132,0,.264-.006a1.311,1.311,0,0,0,.264-.039v.968l-.407.044a3.684,3.684,0,0,1-.407.022,2.776,2.776,0,0,1-.8-.093,1.065,1.065,0,0,1-.473-.275.949.949,0,0,1-.231-.456,3.435,3.435,0,0,1-.071-.627V-4.752h-.946Zm3.608,0h1.375L40.8-1.441h.022l1.441-4.246h1.309l-2.211,6q-.154.385-.3.737a2.638,2.638,0,0,1-.363.622,1.569,1.569,0,0,1-.534.429,1.818,1.818,0,0,1-.814.159,5.707,5.707,0,0,1-.869-.066V1.133q.154.022.3.049a1.57,1.57,0,0,0,.3.028,1.022,1.022,0,0,0,.363-.055A.6.6,0,0,0,39.671,1a.99.99,0,0,0,.16-.247,2.421,2.421,0,0,0,.121-.33l.143-.44Z" transform="translate(1146 420)" fill="#fff"/></g></svg>