<svg xmlns="http://www.w3.org/2000/svg" width="163" height="139" viewBox="0 0 163 139"><g transform="translate(-1304 -326)"><rect width="163" height="139" rx="5" transform="translate(1304 326)" fill="#e9ebf2"/><path d="M1.326-12.138V0H9.758V-1.36H2.941v-4.2H9.248v-1.36H2.941v-3.859H9.707v-1.36ZM13.838-4.624,10.54,0h1.751l2.448-3.638L17.187,0H19.04l-3.4-4.743,3.026-4.046H16.932L14.739-5.712,12.631-8.789H10.778ZM28.067-.034A2.044,2.044,0,0,1,27.03.187a1.243,1.243,0,0,1-.892-.315,1.367,1.367,0,0,1-.332-1.029A3.457,3.457,0,0,1,24.421-.127a4.58,4.58,0,0,1-1.708.315A4.577,4.577,0,0,1,21.582.051a2.629,2.629,0,0,1-.927-.425,2.04,2.04,0,0,1-.621-.756,2.545,2.545,0,0,1-.229-1.13,2.582,2.582,0,0,1,.255-1.224,2.225,2.225,0,0,1,.671-.774,3.077,3.077,0,0,1,.952-.451q.536-.153,1.1-.255.595-.119,1.131-.179a6.3,6.3,0,0,0,.943-.17,1.572,1.572,0,0,0,.646-.323.789.789,0,0,0,.238-.621,1.442,1.442,0,0,0-.178-.765,1.224,1.224,0,0,0-.459-.442,1.866,1.866,0,0,0-.629-.2,4.75,4.75,0,0,0-.688-.051,3.056,3.056,0,0,0-1.53.349,1.479,1.479,0,0,0-.663,1.317H20.145a3.121,3.121,0,0,1,.34-1.377,2.578,2.578,0,0,1,.816-.91,3.424,3.424,0,0,1,1.164-.5,6.15,6.15,0,0,1,1.4-.153,8.227,8.227,0,0,1,1.182.085,3.088,3.088,0,0,1,1.063.349,2.037,2.037,0,0,1,.765.739,2.367,2.367,0,0,1,.289,1.241v4.522a3.382,3.382,0,0,0,.06.748q.059.238.4.238a1.431,1.431,0,0,0,.442-.085ZM25.721-4.539a1.8,1.8,0,0,1-.714.3q-.442.093-.926.153t-.978.136a3.594,3.594,0,0,0-.884.247,1.608,1.608,0,0,0-.638.484,1.357,1.357,0,0,0-.247.859,1.175,1.175,0,0,0,.144.6,1.2,1.2,0,0,0,.374.4,1.569,1.569,0,0,0,.535.221,2.971,2.971,0,0,0,.646.068,3.423,3.423,0,0,0,1.224-.2,2.575,2.575,0,0,0,.833-.493,1.945,1.945,0,0,0,.476-.646,1.634,1.634,0,0,0,.153-.655Zm9.656-1.428h1.5a3.474,3.474,0,0,0-.408-1.352,3.017,3.017,0,0,0-.825-.944,3.415,3.415,0,0,0-1.156-.552,5.312,5.312,0,0,0-1.4-.179,4.254,4.254,0,0,0-1.819.366,3.63,3.63,0,0,0-1.3,1,4.266,4.266,0,0,0-.774,1.5,6.449,6.449,0,0,0-.255,1.845,5.922,5.922,0,0,0,.264,1.81,3.97,3.97,0,0,0,.782,1.419,3.445,3.445,0,0,0,1.292.918,4.578,4.578,0,0,0,1.777.323A3.819,3.819,0,0,0,35.708-.7a4.048,4.048,0,0,0,1.215-2.516H35.445a2.533,2.533,0,0,1-.739,1.581,2.365,2.365,0,0,1-1.674.561,2.392,2.392,0,0,1-1.173-.272,2.282,2.282,0,0,1-.8-.722,3.19,3.19,0,0,1-.45-1.028,4.888,4.888,0,0,1-.145-1.19A5.978,5.978,0,0,1,30.6-5.567a3.219,3.219,0,0,1,.451-1.1,2.334,2.334,0,0,1,.841-.765A2.694,2.694,0,0,1,33.2-7.718a2.193,2.193,0,0,1,1.462.459A2.2,2.2,0,0,1,35.377-5.967Zm5.168-2.822v-2.635H39.1v2.635H37.6v1.275h1.5v5.593a3.339,3.339,0,0,0,.119.986,1.2,1.2,0,0,0,.365.578,1.411,1.411,0,0,0,.646.28A5.189,5.189,0,0,0,41.191,0h1.1V-1.275h-.663a4.819,4.819,0,0,1-.552-.025.714.714,0,0,1-.332-.11.42.42,0,0,1-.161-.238,1.577,1.577,0,0,1-.043-.408V-7.514H42.3V-8.789Zm8.075,0V0h1.445V-5.474a2.1,2.1,0,0,1,.127-.637,2.454,2.454,0,0,1,.408-.74,2.446,2.446,0,0,1,.731-.612,2.158,2.158,0,0,1,1.08-.255,1.943,1.943,0,0,1,.807.145,1.231,1.231,0,0,1,.5.408,1.659,1.659,0,0,1,.264.621,3.735,3.735,0,0,1,.076.782V0h1.445V-5.474a2.206,2.206,0,0,1,.612-1.632A2.274,2.274,0,0,1,57.8-7.718a2.061,2.061,0,0,1,.858.153,1.273,1.273,0,0,1,.519.417,1.562,1.562,0,0,1,.255.621,4.088,4.088,0,0,1,.068.765V0h1.445V-6.443a2.888,2.888,0,0,0-.212-1.164,2.042,2.042,0,0,0-.6-.79,2.486,2.486,0,0,0-.918-.451,4.6,4.6,0,0,0-1.2-.144,3.286,3.286,0,0,0-1.589.391,3.068,3.068,0,0,0-1.165,1.1,1.9,1.9,0,0,0-.935-1.156,3.193,3.193,0,0,0-1.479-.34,3.2,3.2,0,0,0-2.839,1.5H49.98V-8.789ZM70.907-.034A2.044,2.044,0,0,1,69.87.187a1.243,1.243,0,0,1-.893-.315,1.367,1.367,0,0,1-.331-1.029A3.457,3.457,0,0,1,67.26-.127a4.58,4.58,0,0,1-1.708.315A4.577,4.577,0,0,1,64.422.051,2.629,2.629,0,0,1,63.5-.374a2.04,2.04,0,0,1-.621-.756,2.545,2.545,0,0,1-.229-1.13A2.582,2.582,0,0,1,62.9-3.485a2.225,2.225,0,0,1,.672-.774,3.077,3.077,0,0,1,.952-.451q.536-.153,1.1-.255.6-.119,1.131-.179a6.3,6.3,0,0,0,.943-.17,1.572,1.572,0,0,0,.646-.323.789.789,0,0,0,.238-.621,1.442,1.442,0,0,0-.179-.765,1.224,1.224,0,0,0-.459-.442,1.866,1.866,0,0,0-.629-.2,4.75,4.75,0,0,0-.688-.051,3.056,3.056,0,0,0-1.53.349,1.479,1.479,0,0,0-.663,1.317H62.985a3.121,3.121,0,0,1,.34-1.377,2.578,2.578,0,0,1,.816-.91,3.424,3.424,0,0,1,1.165-.5,6.15,6.15,0,0,1,1.4-.153,8.227,8.227,0,0,1,1.182.085,3.088,3.088,0,0,1,1.063.349,2.037,2.037,0,0,1,.765.739,2.367,2.367,0,0,1,.289,1.241v4.522a3.382,3.382,0,0,0,.059.748q.059.238.4.238a1.431,1.431,0,0,0,.442-.085ZM68.561-4.539a1.8,1.8,0,0,1-.714.3q-.442.093-.926.153t-.978.136a3.594,3.594,0,0,0-.884.247,1.608,1.608,0,0,0-.637.484,1.357,1.357,0,0,0-.246.859,1.175,1.175,0,0,0,.145.6,1.2,1.2,0,0,0,.374.4,1.569,1.569,0,0,0,.535.221,2.971,2.971,0,0,0,.646.068,3.423,3.423,0,0,0,1.224-.2,2.574,2.574,0,0,0,.833-.493,1.945,1.945,0,0,0,.476-.646,1.634,1.634,0,0,0,.153-.655Zm5.695-4.25v-2.635H72.811v2.635h-1.5v1.275h1.5v5.593a3.34,3.34,0,0,0,.119.986,1.2,1.2,0,0,0,.366.578,1.411,1.411,0,0,0,.646.28A5.189,5.189,0,0,0,74.9,0h1.105V-1.275h-.663a4.819,4.819,0,0,1-.552-.025.714.714,0,0,1-.332-.11.42.42,0,0,1-.161-.238,1.577,1.577,0,0,1-.042-.408V-7.514h1.751V-8.789Zm9.316,2.822h1.5a3.473,3.473,0,0,0-.408-1.352,3.017,3.017,0,0,0-.825-.944,3.415,3.415,0,0,0-1.156-.552,5.312,5.312,0,0,0-1.4-.179,4.254,4.254,0,0,0-1.819.366,3.63,3.63,0,0,0-1.3,1,4.266,4.266,0,0,0-.774,1.5,6.449,6.449,0,0,0-.255,1.845,5.922,5.922,0,0,0,.264,1.81,3.97,3.97,0,0,0,.782,1.419,3.445,3.445,0,0,0,1.292.918,4.578,4.578,0,0,0,1.776.323A3.819,3.819,0,0,0,83.9-.7a4.048,4.048,0,0,0,1.215-2.516H83.64a2.533,2.533,0,0,1-.74,1.581,2.365,2.365,0,0,1-1.674.561,2.392,2.392,0,0,1-1.173-.272,2.283,2.283,0,0,1-.8-.722A3.19,3.19,0,0,1,78.8-3.094a4.888,4.888,0,0,1-.145-1.19,5.978,5.978,0,0,1,.136-1.283,3.219,3.219,0,0,1,.451-1.1,2.333,2.333,0,0,1,.841-.765A2.694,2.694,0,0,1,81.4-7.718a2.193,2.193,0,0,1,1.462.459A2.2,2.2,0,0,1,83.572-5.967Zm3.162-6.171V0h1.445V-4.964a3.56,3.56,0,0,1,.161-1.1,2.49,2.49,0,0,1,.485-.875,2.152,2.152,0,0,1,.808-.578,2.945,2.945,0,0,1,1.147-.2,1.769,1.769,0,0,1,1.309.476,1.746,1.746,0,0,1,.476,1.292V0H94.01V-5.78a5.439,5.439,0,0,0-.145-1.3,2.463,2.463,0,0,0-.5-1.011,2.376,2.376,0,0,0-.935-.663,3.814,3.814,0,0,0-1.445-.238,4.035,4.035,0,0,0-.807.085,3.571,3.571,0,0,0-.8.264,2.705,2.705,0,0,0-.688.459,1.922,1.922,0,0,0-.476.688h-.034v-4.641Z" transform="translate(1338 451)"/><rect width="141" height="18" rx="4" transform="translate(1315 339)" fill="rgba(128,134,155,0.49)"/><path d="M.836-7.854H4.3a3.293,3.293,0,0,1,1.364.242,2.153,2.153,0,0,1,.814.6,2.055,2.055,0,0,1,.39.792,3.364,3.364,0,0,1,.1.792,3.3,3.3,0,0,1-.1.786,2.058,2.058,0,0,1-.39.786,2.106,2.106,0,0,1-.814.6A3.361,3.361,0,0,1,4.3-3.014H2.211V0H.836ZM2.211-4.136H4.224A1.793,1.793,0,0,0,4.7-4.2a1.354,1.354,0,0,0,.445-.214,1.1,1.1,0,0,0,.33-.4A1.359,1.359,0,0,0,5.6-5.434a1.607,1.607,0,0,0-.11-.638,1.019,1.019,0,0,0-.3-.4,1.057,1.057,0,0,0-.429-.2,2.329,2.329,0,0,0-.517-.055H2.211ZM8-5.687H9.174v1.1H9.2a1.269,1.269,0,0,1,.214-.451,2.092,2.092,0,0,1,.385-.4,1.946,1.946,0,0,1,.5-.292,1.5,1.5,0,0,1,.561-.11,2.721,2.721,0,0,1,.3.011l.17.022V-4.6q-.132-.022-.269-.038a2.261,2.261,0,0,0-.269-.016,1.441,1.441,0,0,0-.6.126,1.377,1.377,0,0,0-.49.374,1.833,1.833,0,0,0-.33.611,2.642,2.642,0,0,0-.121.836V0H8ZM14.278.154a3.1,3.1,0,0,1-1.215-.226,2.592,2.592,0,0,1-.9-.622,2.658,2.658,0,0,1-.561-.946,3.641,3.641,0,0,1-.193-1.21,3.606,3.606,0,0,1,.193-1.2,2.658,2.658,0,0,1,.561-.946,2.592,2.592,0,0,1,.9-.622,3.1,3.1,0,0,1,1.215-.226,3.1,3.1,0,0,1,1.215.226,2.592,2.592,0,0,1,.9.622,2.658,2.658,0,0,1,.561.946,3.606,3.606,0,0,1,.193,1.2,3.641,3.641,0,0,1-.193,1.21,2.658,2.658,0,0,1-.561.946,2.592,2.592,0,0,1-.9.622A3.1,3.1,0,0,1,14.278.154Zm0-.99A1.439,1.439,0,0,0,15-1.012a1.53,1.53,0,0,0,.506-.462,2.016,2.016,0,0,0,.292-.643,2.879,2.879,0,0,0,.093-.732,2.9,2.9,0,0,0-.093-.726,1.946,1.946,0,0,0-.292-.644A1.554,1.554,0,0,0,15-4.675a1.439,1.439,0,0,0-.726-.176,1.439,1.439,0,0,0-.726.176,1.554,1.554,0,0,0-.506.457,1.946,1.946,0,0,0-.292.644,2.9,2.9,0,0,0-.094.726,2.879,2.879,0,0,0,.094.732,2.016,2.016,0,0,0,.292.643,1.53,1.53,0,0,0,.506.462A1.439,1.439,0,0,0,14.278-.836Zm3.949-4.851h1.188v.77h.022a1.551,1.551,0,0,1,.737-.71A2.448,2.448,0,0,1,21.2-5.841a2.716,2.716,0,0,1,1.171.236,2.31,2.31,0,0,1,.831.649,2.819,2.819,0,0,1,.495.963,4.077,4.077,0,0,1,.165,1.177,4.163,4.163,0,0,1-.149,1.111,2.89,2.89,0,0,1-.451.952,2.255,2.255,0,0,1-.764.66,2.274,2.274,0,0,1-1.089.248,3.1,3.1,0,0,1-.55-.05,2.375,2.375,0,0,1-.528-.159,2.082,2.082,0,0,1-.468-.281,1.555,1.555,0,0,1-.358-.4h-.022V2.1H18.227ZM22.6-2.838a2.83,2.83,0,0,0-.1-.748,2.032,2.032,0,0,0-.3-.643,1.534,1.534,0,0,0-.495-.451,1.345,1.345,0,0,0-.682-.171,1.383,1.383,0,0,0-1.193.55,2.427,2.427,0,0,0-.4,1.463,2.913,2.913,0,0,0,.1.8,1.8,1.8,0,0,0,.313.632,1.566,1.566,0,0,0,.5.418,1.427,1.427,0,0,0,.676.154,1.4,1.4,0,0,0,.726-.176,1.535,1.535,0,0,0,.49-.456,1.851,1.851,0,0,0,.275-.638A3.243,3.243,0,0,0,22.6-2.838Zm6.215-.506a2.022,2.022,0,0,0-.127-.572,1.524,1.524,0,0,0-.286-.479,1.416,1.416,0,0,0-.44-.33,1.3,1.3,0,0,0-.577-.127,1.507,1.507,0,0,0-.6.116,1.371,1.371,0,0,0-.462.319,1.578,1.578,0,0,0-.308.478,1.669,1.669,0,0,0-.127.594Zm-2.926.825a2.184,2.184,0,0,0,.094.638,1.572,1.572,0,0,0,.281.539,1.352,1.352,0,0,0,.473.368,1.561,1.561,0,0,0,.682.138,1.506,1.506,0,0,0,.885-.237,1.4,1.4,0,0,0,.5-.71H30a2.364,2.364,0,0,1-.341.825,2.373,2.373,0,0,1-.583.61,2.516,2.516,0,0,1-.764.374,3.077,3.077,0,0,1-.885.126,3.011,3.011,0,0,1-1.188-.22,2.456,2.456,0,0,1-.875-.616,2.614,2.614,0,0,1-.539-.946,3.843,3.843,0,0,1-.181-1.21,3.423,3.423,0,0,1,.192-1.15,2.943,2.943,0,0,1,.55-.957,2.63,2.63,0,0,1,.863-.655,2.619,2.619,0,0,1,1.144-.242,2.549,2.549,0,0,1,1.2.28,2.643,2.643,0,0,1,.885.743,3.006,3.006,0,0,1,.511,1.061,3.254,3.254,0,0,1,.083,1.238Zm5.137-3.168h1.177v1.1h.022a1.269,1.269,0,0,1,.215-.451,2.092,2.092,0,0,1,.385-.4,1.946,1.946,0,0,1,.5-.292,1.5,1.5,0,0,1,.561-.11,2.721,2.721,0,0,1,.3.011l.17.022V-4.6q-.132-.022-.269-.038a2.261,2.261,0,0,0-.27-.016,1.441,1.441,0,0,0-.6.126,1.377,1.377,0,0,0-.49.374,1.833,1.833,0,0,0-.33.611,2.642,2.642,0,0,0-.121.836V0H31.031Zm3.3,0h.946v-1.7h1.254v1.7h1.133v.935H36.531v3.036a3.028,3.028,0,0,0,.017.341.589.589,0,0,0,.077.242.368.368,0,0,0,.181.148.893.893,0,0,0,.33.05q.132,0,.264-.006a1.311,1.311,0,0,0,.264-.039v.968l-.407.044a3.684,3.684,0,0,1-.407.022,2.776,2.776,0,0,1-.8-.093,1.065,1.065,0,0,1-.473-.275.949.949,0,0,1-.231-.456,3.435,3.435,0,0,1-.071-.627V-4.752h-.946Zm3.608,0h1.375L40.8-1.441h.022l1.441-4.246h1.309l-2.211,6q-.154.385-.3.737a2.638,2.638,0,0,1-.363.622,1.569,1.569,0,0,1-.534.429,1.818,1.818,0,0,1-.814.159,5.707,5.707,0,0,1-.869-.066V1.133q.154.022.3.049a1.57,1.57,0,0,0,.3.028,1.022,1.022,0,0,0,.363-.055A.6.6,0,0,0,39.671,1a.99.99,0,0,0,.16-.247,2.421,2.421,0,0,0,.121-.33l.143-.44Z" transform="translate(1320 352)" fill="#fff"/><rect width="141" height="18" rx="4" transform="translate(1315 361)" fill="#80869b"/><path d="M.8-7.854H2.178V-4.73H5.753V-7.854H7.128V0H5.753V-3.542H2.178V0H.8ZM13.365-1.265a.665.665,0,0,0,.061.33.255.255,0,0,0,.236.1h.132a.822.822,0,0,0,.176-.022V.011Q13.9.033,13.8.06T13.585.11q-.11.022-.22.033t-.187.011A1.209,1.209,0,0,1,12.54,0a.767.767,0,0,1-.33-.539,2.218,2.218,0,0,1-.918.528,3.617,3.617,0,0,1-1.05.165A2.576,2.576,0,0,1,9.5.049a1.934,1.934,0,0,1-.622-.308,1.476,1.476,0,0,1-.429-.517,1.593,1.593,0,0,1-.16-.731,1.689,1.689,0,0,1,.193-.858,1.426,1.426,0,0,1,.506-.517,2.285,2.285,0,0,1,.7-.27q.39-.083.786-.127a6.435,6.435,0,0,1,.649-.093,3.046,3.046,0,0,0,.545-.094.834.834,0,0,0,.374-.2.56.56,0,0,0,.137-.412.642.642,0,0,0-.115-.4.775.775,0,0,0-.286-.236,1.235,1.235,0,0,0-.38-.11,3.041,3.041,0,0,0-.4-.028,1.575,1.575,0,0,0-.869.22.858.858,0,0,0-.385.682H8.5a1.888,1.888,0,0,1,.264-.913,1.824,1.824,0,0,1,.589-.583,2.408,2.408,0,0,1,.808-.308,4.814,4.814,0,0,1,.924-.088,3.893,3.893,0,0,1,.825.088,2.343,2.343,0,0,1,.732.286,1.584,1.584,0,0,1,.522.511,1.4,1.4,0,0,1,.2.765ZM12.111-2.849a1.522,1.522,0,0,1-.7.226q-.418.038-.836.115a2.68,2.68,0,0,0-.385.093,1.16,1.16,0,0,0-.33.165.724.724,0,0,0-.226.275.94.94,0,0,0-.082.412.526.526,0,0,0,.121.352.879.879,0,0,0,.292.225,1.35,1.35,0,0,0,.374.116,2.322,2.322,0,0,0,.369.033,2.042,2.042,0,0,0,.451-.055,1.5,1.5,0,0,0,.457-.187,1.2,1.2,0,0,0,.358-.336.849.849,0,0,0,.143-.5Zm3.553,1.023a.945.945,0,0,0,.418.77,1.645,1.645,0,0,0,.869.22,3.356,3.356,0,0,0,.4-.028,1.747,1.747,0,0,0,.424-.1.8.8,0,0,0,.325-.225.541.541,0,0,0,.115-.39.554.554,0,0,0-.176-.4,1.219,1.219,0,0,0-.424-.247,4.1,4.1,0,0,0-.588-.159q-.33-.066-.671-.143a6.3,6.3,0,0,1-.677-.187,2.183,2.183,0,0,1-.583-.3,1.372,1.372,0,0,1-.413-.478,1.529,1.529,0,0,1-.154-.72,1.293,1.293,0,0,1,.226-.776,1.729,1.729,0,0,1,.572-.506,2.491,2.491,0,0,1,.77-.269,4.523,4.523,0,0,1,.809-.077,3.7,3.7,0,0,1,.841.094,2.287,2.287,0,0,1,.726.3,1.776,1.776,0,0,1,.539.545,1.885,1.885,0,0,1,.269.808H17.974a.781.781,0,0,0-.412-.605,1.712,1.712,0,0,0-.743-.154,2.657,2.657,0,0,0-.314.022,1.45,1.45,0,0,0-.341.082.717.717,0,0,0-.269.176.42.42,0,0,0-.11.3.479.479,0,0,0,.16.374,1.262,1.262,0,0,0,.418.237,4.1,4.1,0,0,0,.589.16q.33.066.682.143t.671.187a2.164,2.164,0,0,1,.588.3,1.443,1.443,0,0,1,.418.473,1.428,1.428,0,0,1,.16.7,1.53,1.53,0,0,1-.231.858,1.827,1.827,0,0,1-.6.572,2.727,2.727,0,0,1-.819.319,4.147,4.147,0,0,1-.891.1,3.878,3.878,0,0,1-1-.121,2.32,2.32,0,0,1-.792-.369,1.78,1.78,0,0,1-.528-.616,1.959,1.959,0,0,1-.2-.875Zm7.821-3.861h1.188v.792h.033a3.22,3.22,0,0,1,.308-.385,1.68,1.68,0,0,1,.369-.3,1.864,1.864,0,0,1,.467-.193,2.321,2.321,0,0,1,.605-.071,2.06,2.06,0,0,1,.962.231,1.306,1.306,0,0,1,.633.715,2.531,2.531,0,0,1,.737-.693,1.987,1.987,0,0,1,1.045-.253,2.054,2.054,0,0,1,1.4.44,1.878,1.878,0,0,1,.5,1.474V0H30.481V-3.322q0-.341-.022-.622a1.269,1.269,0,0,0-.126-.484.719.719,0,0,0-.313-.313,1.239,1.239,0,0,0-.572-.11,1.062,1.062,0,0,0-.924.4,1.893,1.893,0,0,0-.286,1.122V0H26.983V-3.652a1.548,1.548,0,0,0-.215-.9.9.9,0,0,0-.787-.3,1.151,1.151,0,0,0-.468.1,1.165,1.165,0,0,0-.4.286A1.432,1.432,0,0,0,24.844-4a1.756,1.756,0,0,0-.1.627V0H23.485ZM36.96-3.344a2.022,2.022,0,0,0-.126-.572,1.524,1.524,0,0,0-.286-.479,1.416,1.416,0,0,0-.44-.33,1.3,1.3,0,0,0-.578-.127,1.507,1.507,0,0,0-.6.116,1.371,1.371,0,0,0-.462.319,1.578,1.578,0,0,0-.308.478,1.669,1.669,0,0,0-.126.594Zm-2.926.825a2.184,2.184,0,0,0,.093.638,1.572,1.572,0,0,0,.281.539,1.352,1.352,0,0,0,.473.368,1.561,1.561,0,0,0,.682.138,1.506,1.506,0,0,0,.886-.237,1.4,1.4,0,0,0,.5-.71h1.188a2.364,2.364,0,0,1-.341.825,2.373,2.373,0,0,1-.583.61,2.516,2.516,0,0,1-.764.374,3.077,3.077,0,0,1-.886.126,3.011,3.011,0,0,1-1.188-.22A2.456,2.456,0,0,1,33.5-.682a2.614,2.614,0,0,1-.539-.946,3.843,3.843,0,0,1-.182-1.21,3.423,3.423,0,0,1,.193-1.15,2.943,2.943,0,0,1,.55-.957,2.63,2.63,0,0,1,.864-.655,2.619,2.619,0,0,1,1.144-.242,2.549,2.549,0,0,1,1.2.28,2.643,2.643,0,0,1,.885.743,3.006,3.006,0,0,1,.512,1.061,3.254,3.254,0,0,1,.083,1.238ZM38.6-5.687h.946v-1.7H40.8v1.7h1.133v.935H40.8v3.036a3.029,3.029,0,0,0,.016.341.589.589,0,0,0,.077.242.368.368,0,0,0,.181.148.893.893,0,0,0,.33.05q.132,0,.264-.006a1.311,1.311,0,0,0,.264-.039v.968l-.407.044a3.684,3.684,0,0,1-.407.022,2.776,2.776,0,0,1-.8-.093,1.065,1.065,0,0,1-.473-.275.949.949,0,0,1-.231-.456,3.435,3.435,0,0,1-.071-.627V-4.752H38.6Zm4.235-2.167h1.254v2.915h.022a1.827,1.827,0,0,1,.688-.643,2.029,2.029,0,0,1,1.017-.259,2.126,2.126,0,0,1,1.474.484A1.852,1.852,0,0,1,47.828-3.9V0H46.574V-3.575a1.545,1.545,0,0,0-.286-.974,1.039,1.039,0,0,0-.825-.3,1.362,1.362,0,0,0-.572.116,1.24,1.24,0,0,0-.429.319,1.5,1.5,0,0,0-.275.478,1.708,1.708,0,0,0-.1.583V0H42.834ZM51.755.154a3.1,3.1,0,0,1-1.215-.226,2.592,2.592,0,0,1-.9-.622,2.658,2.658,0,0,1-.561-.946,3.641,3.641,0,0,1-.193-1.21,3.606,3.606,0,0,1,.193-1.2,2.658,2.658,0,0,1,.561-.946,2.592,2.592,0,0,1,.9-.622,3.1,3.1,0,0,1,1.215-.226,3.1,3.1,0,0,1,1.215.226,2.592,2.592,0,0,1,.9.622,2.658,2.658,0,0,1,.561.946,3.606,3.606,0,0,1,.193,1.2,3.641,3.641,0,0,1-.193,1.21,2.658,2.658,0,0,1-.561.946,2.592,2.592,0,0,1-.9.622A3.1,3.1,0,0,1,51.755.154Zm0-.99a1.439,1.439,0,0,0,.726-.176,1.53,1.53,0,0,0,.506-.462,2.016,2.016,0,0,0,.292-.643,2.879,2.879,0,0,0,.093-.732,2.9,2.9,0,0,0-.093-.726,1.946,1.946,0,0,0-.292-.644,1.554,1.554,0,0,0-.506-.457,1.439,1.439,0,0,0-.726-.176,1.439,1.439,0,0,0-.726.176,1.554,1.554,0,0,0-.506.457,1.946,1.946,0,0,0-.292.644,2.9,2.9,0,0,0-.093.726,2.879,2.879,0,0,0,.093.732,2.016,2.016,0,0,0,.292.643,1.53,1.53,0,0,0,.506.462A1.439,1.439,0,0,0,51.755-.836ZM61.028,0H59.84V-.77h-.022a1.489,1.489,0,0,1-.737.709,2.5,2.5,0,0,1-1.023.214,2.716,2.716,0,0,1-1.172-.236,2.337,2.337,0,0,1-.831-.644,2.754,2.754,0,0,1-.495-.963A4.173,4.173,0,0,1,55.4-2.882a3.814,3.814,0,0,1,.209-1.331,2.665,2.665,0,0,1,.556-.924,2.147,2.147,0,0,1,.792-.534,2.52,2.52,0,0,1,.907-.17,3.039,3.039,0,0,1,.539.049,2.375,2.375,0,0,1,.528.159,2.082,2.082,0,0,1,.467.281,1.555,1.555,0,0,1,.358.4h.022v-2.9h1.254ZM56.65-2.783a2.774,2.774,0,0,0,.093.715,1.96,1.96,0,0,0,.286.627,1.447,1.447,0,0,0,.489.44,1.427,1.427,0,0,0,.7.165,1.408,1.408,0,0,0,.721-.176,1.494,1.494,0,0,0,.5-.462,2.089,2.089,0,0,0,.286-.643,2.879,2.879,0,0,0,.093-.732,2.3,2.3,0,0,0-.424-1.474,1.4,1.4,0,0,0-1.149-.528,1.419,1.419,0,0,0-.743.182,1.526,1.526,0,0,0-.5.473,1.965,1.965,0,0,0-.275.66A3.438,3.438,0,0,0,56.65-2.783Zm6.688.957a.945.945,0,0,0,.418.77,1.645,1.645,0,0,0,.869.22,3.356,3.356,0,0,0,.4-.028,1.747,1.747,0,0,0,.424-.1.8.8,0,0,0,.325-.225.541.541,0,0,0,.116-.39.554.554,0,0,0-.176-.4,1.22,1.22,0,0,0-.424-.247,4.1,4.1,0,0,0-.589-.159q-.33-.066-.671-.143a6.3,6.3,0,0,1-.676-.187,2.183,2.183,0,0,1-.583-.3,1.372,1.372,0,0,1-.413-.478,1.529,1.529,0,0,1-.154-.72,1.293,1.293,0,0,1,.226-.776A1.729,1.729,0,0,1,63-5.495a2.491,2.491,0,0,1,.77-.269,4.523,4.523,0,0,1,.809-.077,3.7,3.7,0,0,1,.841.094,2.287,2.287,0,0,1,.726.3,1.776,1.776,0,0,1,.539.545,1.885,1.885,0,0,1,.27.808H65.648a.781.781,0,0,0-.412-.605,1.712,1.712,0,0,0-.743-.154,2.657,2.657,0,0,0-.313.022,1.45,1.45,0,0,0-.341.082.717.717,0,0,0-.269.176.42.42,0,0,0-.11.3.479.479,0,0,0,.16.374,1.262,1.262,0,0,0,.418.237,4.1,4.1,0,0,0,.589.16q.33.066.682.143t.671.187a2.164,2.164,0,0,1,.589.3,1.443,1.443,0,0,1,.418.473,1.428,1.428,0,0,1,.16.7,1.53,1.53,0,0,1-.231.858,1.827,1.827,0,0,1-.6.572,2.727,2.727,0,0,1-.82.319,4.147,4.147,0,0,1-.891.1,3.878,3.878,0,0,1-1-.121,2.32,2.32,0,0,1-.792-.369,1.78,1.78,0,0,1-.528-.616,1.959,1.959,0,0,1-.2-.875Z" transform="translate(1320 374)" fill="#fff"/><rect width="141" height="18" rx="4" transform="translate(1315 384)" fill="#80869b"/><path d="M.814-7.854H2.75L4.917-1.705h.022L7.051-7.854H8.965V0H7.656V-6.061H7.634L5.456,0H4.323L2.145-6.061H2.123V0H.814Zm13.53,4.51a2.022,2.022,0,0,0-.126-.572,1.524,1.524,0,0,0-.286-.479,1.416,1.416,0,0,0-.44-.33,1.3,1.3,0,0,0-.578-.127,1.507,1.507,0,0,0-.6.116,1.371,1.371,0,0,0-.462.319,1.578,1.578,0,0,0-.308.478,1.669,1.669,0,0,0-.127.594Zm-2.926.825a2.184,2.184,0,0,0,.094.638,1.572,1.572,0,0,0,.28.539,1.352,1.352,0,0,0,.473.368,1.561,1.561,0,0,0,.682.138,1.506,1.506,0,0,0,.885-.237,1.4,1.4,0,0,0,.5-.71h1.188a2.364,2.364,0,0,1-.341.825,2.373,2.373,0,0,1-.583.61,2.516,2.516,0,0,1-.764.374,3.077,3.077,0,0,1-.885.126,3.011,3.011,0,0,1-1.188-.22,2.456,2.456,0,0,1-.875-.616,2.614,2.614,0,0,1-.539-.946,3.843,3.843,0,0,1-.181-1.21,3.423,3.423,0,0,1,.193-1.15,2.943,2.943,0,0,1,.55-.957A2.63,2.63,0,0,1,11.77-5.6a2.619,2.619,0,0,1,1.144-.242,2.549,2.549,0,0,1,1.2.28A2.643,2.643,0,0,1,15-4.818a3.006,3.006,0,0,1,.512,1.061A3.254,3.254,0,0,1,15.6-2.519Zm4.565-3.168h.946v-1.7h1.254v1.7h1.133v.935H18.183v3.036a3.028,3.028,0,0,0,.017.341.589.589,0,0,0,.077.242.368.368,0,0,0,.181.148.893.893,0,0,0,.33.05q.132,0,.264-.006a1.311,1.311,0,0,0,.264-.039v.968l-.407.044A3.684,3.684,0,0,1,18.5.055a2.776,2.776,0,0,1-.8-.093,1.065,1.065,0,0,1-.473-.275A.949.949,0,0,1,17-.77a3.435,3.435,0,0,1-.071-.627V-4.752h-.946Zm4.235-2.167h1.254v2.915h.022a1.827,1.827,0,0,1,.687-.643A2.029,2.029,0,0,1,23.2-5.841a2.126,2.126,0,0,1,1.474.484A1.852,1.852,0,0,1,25.212-3.9V0H23.958V-3.575a1.545,1.545,0,0,0-.286-.974,1.039,1.039,0,0,0-.825-.3,1.362,1.362,0,0,0-.572.116,1.24,1.24,0,0,0-.429.319,1.5,1.5,0,0,0-.275.478,1.708,1.708,0,0,0-.1.583V0H20.218ZM29.139.154a3.1,3.1,0,0,1-1.215-.226,2.592,2.592,0,0,1-.9-.622,2.658,2.658,0,0,1-.561-.946,3.641,3.641,0,0,1-.192-1.21,3.606,3.606,0,0,1,.192-1.2,2.658,2.658,0,0,1,.561-.946,2.592,2.592,0,0,1,.9-.622,3.1,3.1,0,0,1,1.215-.226,3.1,3.1,0,0,1,1.215.226,2.592,2.592,0,0,1,.9.622,2.658,2.658,0,0,1,.561.946,3.606,3.606,0,0,1,.193,1.2,3.641,3.641,0,0,1-.193,1.21,2.658,2.658,0,0,1-.561.946,2.592,2.592,0,0,1-.9.622A3.1,3.1,0,0,1,29.139.154Zm0-.99a1.439,1.439,0,0,0,.726-.176,1.53,1.53,0,0,0,.506-.462,2.016,2.016,0,0,0,.292-.643,2.879,2.879,0,0,0,.094-.732,2.9,2.9,0,0,0-.094-.726,1.946,1.946,0,0,0-.292-.644,1.554,1.554,0,0,0-.506-.457,1.439,1.439,0,0,0-.726-.176,1.439,1.439,0,0,0-.726.176,1.554,1.554,0,0,0-.506.457,1.946,1.946,0,0,0-.292.644,2.9,2.9,0,0,0-.094.726,2.879,2.879,0,0,0,.094.732,2.016,2.016,0,0,0,.292.643,1.53,1.53,0,0,0,.506.462A1.439,1.439,0,0,0,29.139-.836ZM38.412,0H37.224V-.77H37.2a1.489,1.489,0,0,1-.737.709,2.5,2.5,0,0,1-1.023.214,2.716,2.716,0,0,1-1.172-.236,2.337,2.337,0,0,1-.831-.644,2.754,2.754,0,0,1-.495-.963,4.173,4.173,0,0,1-.165-1.193,3.814,3.814,0,0,1,.209-1.331,2.665,2.665,0,0,1,.556-.924,2.147,2.147,0,0,1,.792-.534,2.52,2.52,0,0,1,.907-.17,3.039,3.039,0,0,1,.539.049,2.375,2.375,0,0,1,.528.159,2.082,2.082,0,0,1,.467.281,1.555,1.555,0,0,1,.358.4h.022v-2.9h1.254ZM34.034-2.783a2.774,2.774,0,0,0,.093.715,1.96,1.96,0,0,0,.286.627A1.447,1.447,0,0,0,34.9-1a1.427,1.427,0,0,0,.7.165,1.408,1.408,0,0,0,.72-.176,1.494,1.494,0,0,0,.5-.462,2.089,2.089,0,0,0,.286-.643,2.879,2.879,0,0,0,.093-.732,2.3,2.3,0,0,0-.424-1.474,1.4,1.4,0,0,0-1.149-.528,1.419,1.419,0,0,0-.743.182,1.526,1.526,0,0,0-.495.473,1.965,1.965,0,0,0-.275.66A3.438,3.438,0,0,0,34.034-2.783Zm6.688.957a.945.945,0,0,0,.418.77,1.645,1.645,0,0,0,.869.22,3.356,3.356,0,0,0,.4-.028,1.747,1.747,0,0,0,.424-.1.8.8,0,0,0,.325-.225.541.541,0,0,0,.116-.39.554.554,0,0,0-.176-.4,1.219,1.219,0,0,0-.424-.247,4.1,4.1,0,0,0-.588-.159q-.33-.066-.671-.143a6.3,6.3,0,0,1-.676-.187,2.183,2.183,0,0,1-.583-.3,1.372,1.372,0,0,1-.413-.478,1.529,1.529,0,0,1-.154-.72,1.293,1.293,0,0,1,.226-.776,1.729,1.729,0,0,1,.572-.506,2.491,2.491,0,0,1,.77-.269,4.523,4.523,0,0,1,.808-.077,3.7,3.7,0,0,1,.841.094,2.287,2.287,0,0,1,.726.3,1.776,1.776,0,0,1,.539.545,1.885,1.885,0,0,1,.269.808H43.032A.781.781,0,0,0,42.62-4.7a1.712,1.712,0,0,0-.743-.154,2.657,2.657,0,0,0-.314.022,1.45,1.45,0,0,0-.341.082.717.717,0,0,0-.269.176.42.42,0,0,0-.11.3.479.479,0,0,0,.16.374,1.262,1.262,0,0,0,.418.237,4.1,4.1,0,0,0,.589.16q.33.066.682.143t.671.187a2.164,2.164,0,0,1,.589.3,1.443,1.443,0,0,1,.418.473,1.428,1.428,0,0,1,.16.7,1.53,1.53,0,0,1-.231.858,1.827,1.827,0,0,1-.6.572,2.727,2.727,0,0,1-.819.319,4.147,4.147,0,0,1-.891.1,3.878,3.878,0,0,1-1-.121A2.32,2.32,0,0,1,40.2-.336a1.78,1.78,0,0,1-.528-.616,1.959,1.959,0,0,1-.2-.875Z" transform="translate(1320 397)" fill="#fff"/><rect width="141" height="18" rx="4" transform="translate(1315 407)" fill="rgba(128,134,155,0.49)"/><path d="M.836-7.854H4.3a3.293,3.293,0,0,1,1.364.242,2.153,2.153,0,0,1,.814.6,2.055,2.055,0,0,1,.39.792,3.364,3.364,0,0,1,.1.792,3.3,3.3,0,0,1-.1.786,2.058,2.058,0,0,1-.39.786,2.106,2.106,0,0,1-.814.6A3.361,3.361,0,0,1,4.3-3.014H2.211V0H.836ZM2.211-4.136H4.224A1.793,1.793,0,0,0,4.7-4.2a1.354,1.354,0,0,0,.445-.214,1.1,1.1,0,0,0,.33-.4A1.359,1.359,0,0,0,5.6-5.434a1.607,1.607,0,0,0-.11-.638,1.019,1.019,0,0,0-.3-.4,1.057,1.057,0,0,0-.429-.2,2.329,2.329,0,0,0-.517-.055H2.211ZM8-5.687H9.174v1.1H9.2a1.269,1.269,0,0,1,.214-.451,2.092,2.092,0,0,1,.385-.4,1.946,1.946,0,0,1,.5-.292,1.5,1.5,0,0,1,.561-.11,2.721,2.721,0,0,1,.3.011l.17.022V-4.6q-.132-.022-.269-.038a2.261,2.261,0,0,0-.269-.016,1.441,1.441,0,0,0-.6.126,1.377,1.377,0,0,0-.49.374,1.833,1.833,0,0,0-.33.611,2.642,2.642,0,0,0-.121.836V0H8ZM14.278.154a3.1,3.1,0,0,1-1.215-.226,2.592,2.592,0,0,1-.9-.622,2.658,2.658,0,0,1-.561-.946,3.641,3.641,0,0,1-.193-1.21,3.606,3.606,0,0,1,.193-1.2,2.658,2.658,0,0,1,.561-.946,2.592,2.592,0,0,1,.9-.622,3.1,3.1,0,0,1,1.215-.226,3.1,3.1,0,0,1,1.215.226,2.592,2.592,0,0,1,.9.622,2.658,2.658,0,0,1,.561.946,3.606,3.606,0,0,1,.193,1.2,3.641,3.641,0,0,1-.193,1.21,2.658,2.658,0,0,1-.561.946,2.592,2.592,0,0,1-.9.622A3.1,3.1,0,0,1,14.278.154Zm0-.99A1.439,1.439,0,0,0,15-1.012a1.53,1.53,0,0,0,.506-.462,2.016,2.016,0,0,0,.292-.643,2.879,2.879,0,0,0,.093-.732,2.9,2.9,0,0,0-.093-.726,1.946,1.946,0,0,0-.292-.644A1.554,1.554,0,0,0,15-4.675a1.439,1.439,0,0,0-.726-.176,1.439,1.439,0,0,0-.726.176,1.554,1.554,0,0,0-.506.457,1.946,1.946,0,0,0-.292.644,2.9,2.9,0,0,0-.094.726,2.879,2.879,0,0,0,.094.732,2.016,2.016,0,0,0,.292.643,1.53,1.53,0,0,0,.506.462A1.439,1.439,0,0,0,14.278-.836Zm3.949-4.851h1.188v.77h.022a1.551,1.551,0,0,1,.737-.71A2.448,2.448,0,0,1,21.2-5.841a2.716,2.716,0,0,1,1.171.236,2.31,2.31,0,0,1,.831.649,2.819,2.819,0,0,1,.495.963,4.077,4.077,0,0,1,.165,1.177,4.163,4.163,0,0,1-.149,1.111,2.89,2.89,0,0,1-.451.952,2.255,2.255,0,0,1-.764.66,2.274,2.274,0,0,1-1.089.248,3.1,3.1,0,0,1-.55-.05,2.375,2.375,0,0,1-.528-.159,2.082,2.082,0,0,1-.468-.281,1.555,1.555,0,0,1-.358-.4h-.022V2.1H18.227ZM22.6-2.838a2.83,2.83,0,0,0-.1-.748,2.032,2.032,0,0,0-.3-.643,1.534,1.534,0,0,0-.495-.451,1.345,1.345,0,0,0-.682-.171,1.383,1.383,0,0,0-1.193.55,2.427,2.427,0,0,0-.4,1.463,2.913,2.913,0,0,0,.1.8,1.8,1.8,0,0,0,.313.632,1.566,1.566,0,0,0,.5.418,1.427,1.427,0,0,0,.676.154,1.4,1.4,0,0,0,.726-.176,1.535,1.535,0,0,0,.49-.456,1.851,1.851,0,0,0,.275-.638A3.243,3.243,0,0,0,22.6-2.838Zm6.215-.506a2.022,2.022,0,0,0-.127-.572,1.524,1.524,0,0,0-.286-.479,1.416,1.416,0,0,0-.44-.33,1.3,1.3,0,0,0-.577-.127,1.507,1.507,0,0,0-.6.116,1.371,1.371,0,0,0-.462.319,1.578,1.578,0,0,0-.308.478,1.669,1.669,0,0,0-.127.594Zm-2.926.825a2.184,2.184,0,0,0,.094.638,1.572,1.572,0,0,0,.281.539,1.352,1.352,0,0,0,.473.368,1.561,1.561,0,0,0,.682.138,1.506,1.506,0,0,0,.885-.237,1.4,1.4,0,0,0,.5-.71H30a2.364,2.364,0,0,1-.341.825,2.373,2.373,0,0,1-.583.61,2.516,2.516,0,0,1-.764.374,3.077,3.077,0,0,1-.885.126,3.011,3.011,0,0,1-1.188-.22,2.456,2.456,0,0,1-.875-.616,2.614,2.614,0,0,1-.539-.946,3.843,3.843,0,0,1-.181-1.21,3.423,3.423,0,0,1,.192-1.15,2.943,2.943,0,0,1,.55-.957,2.63,2.63,0,0,1,.863-.655,2.619,2.619,0,0,1,1.144-.242,2.549,2.549,0,0,1,1.2.28,2.643,2.643,0,0,1,.885.743,3.006,3.006,0,0,1,.511,1.061,3.254,3.254,0,0,1,.083,1.238Zm5.137-3.168h1.177v1.1h.022a1.269,1.269,0,0,1,.215-.451,2.092,2.092,0,0,1,.385-.4,1.946,1.946,0,0,1,.5-.292,1.5,1.5,0,0,1,.561-.11,2.721,2.721,0,0,1,.3.011l.17.022V-4.6q-.132-.022-.269-.038a2.261,2.261,0,0,0-.27-.016,1.441,1.441,0,0,0-.6.126,1.377,1.377,0,0,0-.49.374,1.833,1.833,0,0,0-.33.611,2.642,2.642,0,0,0-.121.836V0H31.031Zm3.3,0h.946v-1.7h1.254v1.7h1.133v.935H36.531v3.036a3.028,3.028,0,0,0,.017.341.589.589,0,0,0,.077.242.368.368,0,0,0,.181.148.893.893,0,0,0,.33.05q.132,0,.264-.006a1.311,1.311,0,0,0,.264-.039v.968l-.407.044a3.684,3.684,0,0,1-.407.022,2.776,2.776,0,0,1-.8-.093,1.065,1.065,0,0,1-.473-.275.949.949,0,0,1-.231-.456,3.435,3.435,0,0,1-.071-.627V-4.752h-.946Zm3.608,0h1.375L40.8-1.441h.022l1.441-4.246h1.309l-2.211,6q-.154.385-.3.737a2.638,2.638,0,0,1-.363.622,1.569,1.569,0,0,1-.534.429,1.818,1.818,0,0,1-.814.159,5.707,5.707,0,0,1-.869-.066V1.133q.154.022.3.049a1.57,1.57,0,0,0,.3.028,1.022,1.022,0,0,0,.363-.055A.6.6,0,0,0,39.671,1a.99.99,0,0,0,.16-.247,2.421,2.421,0,0,0,.121-.33l.143-.44Z" transform="translate(1320 420)" fill="#fff"/></g></svg>