<svg xmlns="http://www.w3.org/2000/svg" xmlns:xlink="http://www.w3.org/1999/xlink" width="1528" height="836" viewBox="0 0 1528 836">
  <defs>
    <clipPath id="clip-Web_1920_1">
      <rect width="1528" height="836"/>
    </clipPath>
  </defs>
  <g id="Web_1920_1" data-name="Web 1920 – 1" clip-path="url(#clip-Web_1920_1)">
    <g id="Background" transform="translate(658.194 -20.5)">
      <line id="Line_3" data-name="Line 3" y1="268" x2="31" transform="translate(763.306 196)" fill="none" stroke="#83879b" stroke-width="3"/>
      <line id="Line_4" data-name="Line 4" x2="10" y2="120" transform="translate(784.306 76)" fill="none" stroke="#83879b" stroke-width="3"/>
      <line id="Line_5" data-name="Line 5" x1="118" y1="2" transform="translate(666.306 74)" fill="none" stroke="#6d7184" stroke-width="3"/>
      <line id="Line_7" data-name="Line 7" x1="182" y1="165" transform="translate(347.306 119)" fill="none" stroke="#83879b" stroke-width="3"/>
      <line id="Line_8" data-name="Line 8" y1="350" x2="47" transform="translate(300.306 119)" fill="none" stroke="#83879b" stroke-width="3"/>
      <line id="Line_9" data-name="Line 9" y1="13" x2="160" transform="translate(300.306 456)" fill="none" stroke="#83879b" stroke-width="3"/>
      <line id="Line_13" data-name="Line 13" y1="176" x2="15" transform="translate(754.306 486)" fill="none" stroke="#83879b" stroke-width="3"/>
      <line id="Line_74" data-name="Line 74" x1="45" y2="154" transform="translate(734.306 74)" fill="none" stroke="#6d7184" stroke-width="3"/>
      <line id="Line_75" data-name="Line 75" x1="10" y1="59" transform="translate(673.306 235)" fill="none" stroke="#6d7184" stroke-width="3"/>
      <line id="Line_76" data-name="Line 76" y1="139" x2="7" transform="translate(683.306 155)" fill="none" stroke="#6d7184" stroke-width="3"/>
      <line id="Line_77" data-name="Line 77" x2="125" y2="64" transform="translate(565.306 91)" fill="none" stroke="#6d7184" stroke-width="3"/>
      <line id="Line_78" data-name="Line 78" x2="26" y2="81" transform="translate(664.306 74)" fill="none" stroke="#6d7184" stroke-width="3"/>
      <line id="Line_79" data-name="Line 79" x2="44" y2="73" transform="translate(690.306 155)" fill="none" stroke="#6d7184" stroke-width="3"/>
      <line id="Line_80" data-name="Line 80" y1="58" x2="211" transform="translate(523.306 228)" fill="none" stroke="#6d7184" stroke-width="3"/>
      <line id="Line_81" data-name="Line 81" x2="174" y2="23" transform="translate(560.306 205)" fill="none" stroke="#6d7184" stroke-width="3"/>
      <line id="Line_14" data-name="Line 14" x1="66" y2="139" transform="translate(688.306 662)" fill="none" stroke="#83879b" stroke-width="3"/>
      <line id="Line_10" data-name="Line 10" x1="103" y1="212" transform="translate(460.306 456)" fill="none" stroke="#83879b" stroke-width="3"/>
      <line id="Line_11" data-name="Line 11" x1="277" y2="50" transform="translate(286.306 668)" fill="none" stroke="#83879b" stroke-width="3"/>
      <line id="Line_12" data-name="Line 12" y1="182" x2="206" transform="translate(563.306 486)" fill="none" stroke="#83879b" stroke-width="3"/>
      <line id="Line_15" data-name="Line 15" x2="12" y2="65" transform="translate(654.306 9)" fill="none" stroke="#83879b" stroke-width="3"/>
      <line id="Line_16" data-name="Line 16" x2="12" y2="65" transform="translate(654.306 9)" fill="none" stroke="#6d7184" stroke-width="3"/>
      <line id="Line_17" data-name="Line 17" x1="30" y1="76" transform="translate(754.306)" fill="none" stroke="#6d7184" stroke-width="3"/>
      <line id="Line_18" data-name="Line 18" y1="76" x2="15" transform="translate(784.306)" fill="none" stroke="#6d7184" stroke-width="3"/>
      <line id="Line_23" data-name="Line 23" x2="100" y2="79" transform="translate(784.306 76)" fill="none" stroke="#6d7184" stroke-width="3"/>
      <line id="Line_25" data-name="Line 25" y1="17" x2="103" transform="translate(563.306 74)" fill="none" stroke="#6d7184" stroke-width="3"/>
      <line id="Line_26" data-name="Line 26" x2="21" y2="56" transform="translate(563.306 91)" fill="none" stroke="#6d7184" stroke-width="3"/>
      <line id="Line_27" data-name="Line 27" x1="61" y2="43" transform="translate(502.306 91)" fill="none" stroke="#6d7184" stroke-width="3"/>
      <line id="Line_28" data-name="Line 28" x1="41" y2="118" transform="translate(502.306 16)" fill="none" stroke="#6d7184" stroke-width="3"/>
      <line id="Line_29" data-name="Line 29" x2="155" y2="17" transform="translate(347.306 117)" fill="none" stroke="#6d7184" stroke-width="3"/>
      <line id="Line_30" data-name="Line 30" x1="113" y2="110" transform="translate(347.306 9)" fill="none" stroke="#83879b" stroke-width="3"/>
      <line id="Line_31" data-name="Line 31" x2="23" y2="103" transform="translate(324.306 16)" fill="none" stroke="#83879b" stroke-width="3"/>
      <line id="Line_32" data-name="Line 32" x1="184" y2="97" transform="translate(163.306 117)" fill="none" stroke="#6d7184" stroke-width="3"/>
      <line id="Line_33" data-name="Line 33" x2="120" y2="12" transform="translate(43.306 202)" fill="none" stroke="#6d7184" stroke-width="3"/>
      <line id="Line_34" data-name="Line 34" x1="19" y2="138" transform="translate(24.306 202)" fill="none" stroke="#6d7184" stroke-width="3"/>
      <line id="Line_35" data-name="Line 35" x1="102" y1="108" transform="translate(24.306 340)" fill="none" stroke="#6d7184" stroke-width="3"/>
      <line id="Line_36" data-name="Line 36" y1="148" x2="243" transform="translate(126.306 300)" fill="none" stroke="#6d7184" stroke-width="3"/>
      <line id="Line_37" data-name="Line 37" x2="37" y2="164" transform="translate(126.306 448)" fill="none" stroke="#6d7184" stroke-width="3"/>
      <line id="Line_38" data-name="Line 38" x1="123" y1="106" transform="translate(163.306 612)" fill="none" stroke="#6d7184" stroke-width="3"/>
      <line id="Line_39" data-name="Line 39" y1="145" x2="146" transform="translate(17.306 609)" fill="none" stroke="#6d7184" stroke-width="3"/>
      <line id="Line_43" data-name="Line 43" x1="58" y1="74" transform="translate(502.306 134)" fill="none" stroke="#6d7184" stroke-width="3"/>
      <line id="Line_44" data-name="Line 44" y1="59" x2="24" transform="translate(560.306 149)" fill="none" stroke="#6d7184" stroke-width="3"/>
      <line id="Line_45" data-name="Line 45" x1="85" y1="89" transform="translate(584.306 149)" fill="none" stroke="#6d7184" stroke-width="3"/>
      <line id="Line_46" data-name="Line 46" x1="54" y2="40" transform="translate(615.306 238)" fill="none" stroke="#6d7184" stroke-width="3"/>
      <line id="Line_47" data-name="Line 47" x1="65" y1="16" transform="translate(615.306 278)" fill="none" stroke="#6d7184" stroke-width="3"/>
      <line id="Line_48" data-name="Line 48" y1="66" x2="54" transform="translate(680.306 228)" fill="none" stroke="#6d7184" stroke-width="3"/>
      <line id="Line_49" data-name="Line 49" x1="50" y1="50" transform="translate(734.306 228)" fill="none" stroke="#6d7184" stroke-width="3"/>
      <line id="Line_50" data-name="Line 50" x1="22" y2="62" transform="translate(762.306 278)" fill="none" stroke="#6d7184" stroke-width="3"/>
      <line id="Line_51" data-name="Line 51" x2="79" y2="46" transform="translate(683.306 294)" fill="none" stroke="#6d7184" stroke-width="3"/>
      <line id="Line_52" data-name="Line 52" y1="16" x2="101" transform="translate(683.306 278)" fill="none" stroke="#6d7184" stroke-width="3"/>
      <line id="Line_53" data-name="Line 53" y1="161" x2="206" transform="translate(578.306 278)" fill="none" stroke="#6d7184" stroke-width="3"/>
      <line id="Line_54" data-name="Line 54" y1="99" x2="58" transform="translate(578.306 340)" fill="none" stroke="#6d7184" stroke-width="3"/>
      <line id="Line_55" data-name="Line 55" x2="103" y2="54" transform="translate(533.306 286)" fill="none" stroke="#6d7184" stroke-width="3"/>
      <line id="Line_56" data-name="Line 56" x2="103" y2="54" transform="translate(533.306 286)" fill="none" stroke="#6d7184" stroke-width="3"/>
      <line id="Line_57" data-name="Line 57" x1="67" y2="170" transform="translate(466.306 286)" fill="none" stroke="#6d7184" stroke-width="3"/>
      <line id="Line_58" data-name="Line 58" x2="119" y2="340" transform="translate(347.306 116)" fill="none" stroke="#6d7184" stroke-width="3"/>
      <line id="Line_59" data-name="Line 59" x1="188" y1="67" transform="translate(466.306 456)" fill="none" stroke="#6d7184" stroke-width="3"/>
      <line id="Line_60" data-name="Line 60" x1="73" y1="84" transform="translate(581.306 439)" fill="none" stroke="#6d7184" stroke-width="3"/>
      <line id="Line_61" data-name="Line 61" y1="165" x2="40" transform="translate(654.306 358)" fill="none" stroke="#6d7184" stroke-width="3"/>
      <line id="Line_62" data-name="Line 62" x2="58" y2="18" transform="translate(636.306 340)" fill="none" stroke="#6d7184" stroke-width="3"/>
      <line id="Line_63" data-name="Line 63" y1="45" x2="45" transform="translate(636.306 295)" fill="none" stroke="#6d7184" stroke-width="3"/>
      <line id="Line_82" data-name="Line 82" x1="47" y1="153" transform="translate(531.306 286)" fill="none" stroke="#6d7184" stroke-width="3"/>
      <line id="Line_83" data-name="Line 83" x1="83" y2="8" transform="translate(531.306 278)" fill="none" stroke="#6d7184" stroke-width="3"/>
      <line id="Line_84" data-name="Line 84" x1="59" y1="76" transform="translate(555.306 202)" fill="none" stroke="#6d7184" stroke-width="3"/>
      <line id="Line_85" data-name="Line 85" y1="80" x2="26" transform="translate(529.306 202)" fill="none" stroke="#6d7184" stroke-width="3"/>
      <line id="Line_86" data-name="Line 86" x1="27" y1="148" transform="translate(502.306 134)" fill="none" stroke="#6d7184" stroke-width="3"/>
      <line id="Line_96" data-name="Line 96" y1="189" x2="119" transform="translate(454.306 636)" fill="none" stroke="#6d7184" stroke-width="3"/>
      <line id="Line_97" data-name="Line 97" y1="276" x2="325" transform="translate(248.306 636)" fill="none" stroke="#6d7184" stroke-width="3"/>
      <line id="Line_98" data-name="Line 98" x2="139" y2="54" transform="translate(434.306 582)" fill="none" stroke="#6d7184" stroke-width="3"/>
      <line id="Line_99" data-name="Line 99" x1="134" y1="96" transform="translate(300.306 486)" fill="none" stroke="#6d7184" stroke-width="3"/>
      <line id="Line_100" data-name="Line 100" y1="220" x2="9" transform="translate(291.306 486)" fill="none" stroke="#6d7184" stroke-width="3"/>
      <line id="Line_101" data-name="Line 101" x1="149" y1="339" transform="translate(300.306 486)" fill="none" stroke="#6d7184" stroke-width="3"/>
      <line id="Line_102" data-name="Line 102" x1="66" y2="315" transform="translate(688.306 486)" fill="none" stroke="#6d7184" stroke-width="3"/>
      <line id="Line_103" data-name="Line 103" x1="100" y2="37" transform="translate(654.306 486)" fill="none" stroke="#6d7184" stroke-width="3"/>
      <line id="Line_104" data-name="Line 104" x2="99" y2="156" transform="translate(367.306 300)" fill="none" stroke="#6d7184" stroke-width="3"/>
      <line id="Line_105" data-name="Line 105" y1="14" x2="149" transform="translate(367.306 286)" fill="none" stroke="#6d7184" stroke-width="3"/>
      <line id="Line_106" data-name="Line 106" x2="206" y2="86" transform="translate(163.306 214)" fill="none" stroke="#6d7184" stroke-width="3"/>
      <line id="Line_107" data-name="Line 107" x2="137" y2="255" transform="translate(163.306 214)" fill="none" stroke="#6d7184" stroke-width="3"/>
      <line id="Line_108" data-name="Line 108" y1="143" x2="137" transform="translate(163.306 469)" fill="none" stroke="#6d7184" stroke-width="3"/>
      <line id="Line_87" data-name="Line 87" x1="79" y1="13" transform="translate(502.306 134)" fill="none" stroke="#6d7184" stroke-width="3"/>
      <line id="Line_88" data-name="Line 88" y1="206" x2="133" transform="translate(529.306 76)" fill="none" stroke="#6d7184" stroke-width="3"/>
      <line id="Line_89" data-name="Line 89" x1="202" y2="74" transform="translate(584.306 75)" fill="none" stroke="#6d7184" stroke-width="3"/>
      <line id="Line_90" data-name="Line 90" x1="208" y1="45" transform="translate(584.306 149)" fill="none" stroke="#6d7184" stroke-width="3"/>
      <line id="Line_110" data-name="Line 110" x1="78" y1="222" transform="translate(163.306 609)" fill="none" stroke="#6d7184" stroke-width="3"/>
      <line id="Line_111" data-name="Line 111" y1="104" x2="38" transform="translate(241.306 727)" fill="none" stroke="#6d7184" stroke-width="3"/>
      <line id="Line_113" data-name="Line 113" x2="82" y2="77" transform="translate(24.306 754)" fill="none" stroke="#6d7184" stroke-width="3"/>
      <line id="Line_114" data-name="Line 114" x1="454" y2="149" transform="translate(106.306 682)" fill="none" stroke="#6d7184" stroke-width="3"/>
      <line id="Line_91" data-name="Line 91" x1="202" y2="74" transform="translate(584.306 75)" fill="none" stroke="#6d7184" stroke-width="3"/>
      <line id="Line_92" data-name="Line 92" x1="202" y2="74" transform="translate(584.306 75)" fill="none" stroke="#6d7184" stroke-width="3"/>
      <line id="Line_93" data-name="Line 93" x1="117" y2="160" transform="translate(669.306 75)" fill="none" stroke="#6d7184" stroke-width="3"/>
      <line id="Line_94" data-name="Line 94" x1="33" y2="102" transform="translate(636.306 238)" fill="none" stroke="#6d7184" stroke-width="3"/>
      <line id="Line_95" data-name="Line 95" y1="295" x2="8" transform="translate(654.306 228)" fill="none" stroke="#6d7184" stroke-width="3"/>
      <line id="Line_64" data-name="Line 64" x1="60" y2="34" transform="translate(734.306 194)" fill="none" stroke="#6d7184" stroke-width="3"/>
      <line id="Line_65" data-name="Line 65" x2="116" y2="269" transform="translate(794.306 194)" fill="none" stroke="#6d7184" stroke-width="3"/>
      <line id="Line_66" data-name="Line 66" x1="60" y2="34" transform="translate(734.306 194)" fill="none" stroke="#6d7184" stroke-width="3"/>
      <line id="Line_67" data-name="Line 67" x1="141" y1="103" transform="translate(769.306 486)" fill="none" stroke="#83879b" stroke-width="3"/>
      <line id="Line_68" data-name="Line 68" x1="204" y2="95" transform="translate(688.306 706)" fill="none" stroke="#83879b" stroke-width="3"/>
      <line id="Line_69" data-name="Line 69" x1="204" y2="95" transform="translate(688.306 706)" fill="none" stroke="#6d7184" stroke-width="3"/>
      <line id="Line_70" data-name="Line 70" x1="196" y1="77" transform="translate(688.306 801)" fill="none" stroke="#6d7184" stroke-width="3"/>
      <line id="Line_71" data-name="Line 71" y1="24" x2="246" transform="translate(442.306 801)" fill="none" stroke="#83879b" stroke-width="3"/>
      <line id="Line_72" data-name="Line 72" y1="24" x2="246" transform="translate(442.306 801)" fill="none" stroke="#83879b" stroke-width="3"/>
      <line id="Line_73" data-name="Line 73" x1="117" y1="165" transform="translate(573.306 636)" fill="none" stroke="#6d7184" stroke-width="3"/>
      <line id="Line_2" data-name="Line 2" x1="74" y1="306" transform="translate(689.306 158)" fill="none" stroke="#83879b" stroke-width="3"/>
      <line id="Line_6" data-name="Line 6" y1="126" x2="160" transform="translate(529.306 158)" fill="none" stroke="#83879b" stroke-width="3"/>
      <line id="Line_24" data-name="Line 24" x1="96" y2="82" transform="translate(688.306 76)" fill="none" stroke="#83879b" stroke-width="3"/>
      <g id="Ellipse_1" data-name="Ellipse 1" transform="translate(486.806 241.5)" fill="#626577" stroke="#e96161" stroke-width="5">
        <circle cx="42" cy="42" r="42" stroke="none"/>
        <circle cx="42" cy="42" r="39.5" fill="none"/>
      </g>
      <g id="Ellipse_2" data-name="Ellipse 2" transform="translate(672.806 141.5)" fill="#626577" stroke="#e96161" stroke-width="4">
        <circle cx="16.5" cy="16.5" r="16.5" stroke="none"/>
        <circle cx="16.5" cy="16.5" r="14.5" fill="none"/>
      </g>
      <g id="Ellipse_3" data-name="Ellipse 3" transform="translate(542.806 187.5)" fill="#ea6161" stroke="#e96161" stroke-width="5">
        <circle cx="17.5" cy="17.5" r="17.5" stroke="none"/>
        <circle cx="17.5" cy="17.5" r="15" fill="none"/>
      </g>
      <g id="Ellipse_4" data-name="Ellipse 4" transform="translate(505.806 596.5)" fill="#626577" stroke="#474a5d" stroke-width="5">
        <circle cx="65" cy="65" r="65" stroke="none"/>
        <circle cx="65" cy="65" r="62.5" fill="none"/>
      </g>
      <g id="Ellipse_5" data-name="Ellipse 5" transform="translate(257.806 438.5)" fill="#626577" stroke="#474a5d" stroke-width="5">
        <circle cx="42" cy="42" r="42" stroke="none"/>
        <circle cx="42" cy="42" r="39.5" fill="none"/>
      </g>
      <g id="Ellipse_6" data-name="Ellipse 6" transform="translate(317.806 90.5)" fill="#626577" stroke="#e96161" stroke-width="5">
        <ellipse cx="29" cy="28" rx="29" ry="28" stroke="none"/>
        <ellipse cx="29" cy="28" rx="26.5" ry="25.5" fill="none"/>
      </g>
      <g id="Ellipse_7" data-name="Ellipse 7" transform="translate(243.806 675.5)" fill="#626577" stroke="#e96161" stroke-width="5">
        <circle cx="42" cy="42" r="42" stroke="none"/>
        <circle cx="42" cy="42" r="39.5" fill="none"/>
      </g>
      <circle id="Ellipse_8" data-name="Ellipse 8" cx="15" cy="15" r="15" transform="translate(353.806 284.5)" fill="#474a5d"/>
      <circle id="Ellipse_9" data-name="Ellipse 9" cx="15" cy="15" r="15" transform="translate(486.806 118.5)" fill="#474a5d"/>
      <circle id="Ellipse_10" data-name="Ellipse 10" cx="15" cy="15" r="15" transform="translate(562.806 423.5)" fill="#474a5d"/>
      <circle id="Ellipse_11" data-name="Ellipse 11" cx="15" cy="15" r="15" transform="translate(486.806 118.5)" fill="#474a5d"/>
      <circle id="Ellipse_12" data-name="Ellipse 12" cx="15" cy="15" r="15" transform="translate(418.806 566.5)" fill="#474a5d"/>
      <circle id="Ellipse_13" data-name="Ellipse 13" cx="15" cy="15" r="15" transform="translate(738.806 646.5)" fill="#474a5d"/>
      <circle id="Ellipse_14" data-name="Ellipse 14" cx="15" cy="15" r="15" transform="translate(672.806 785.5)" fill="#474a5d"/>
      <circle id="Ellipse_15" data-name="Ellipse 15" cx="15" cy="15" r="15" transform="translate(768.806 60.5)" fill="#474a5d"/>
      <g id="Ellipse_16" data-name="Ellipse 16" transform="translate(638.806 50.5)" fill="#626577" stroke="#474a5d" stroke-width="4">
        <circle cx="25.5" cy="25.5" r="25.5" stroke="none"/>
        <circle cx="25.5" cy="25.5" r="23.5" fill="none"/>
      </g>
      <circle id="Ellipse_17" data-name="Ellipse 17" cx="25.5" cy="25.5" r="25.5" transform="translate(610.806 314.5)" fill="#474a5d"/>
      <circle id="Ellipse_18" data-name="Ellipse 18" cx="21" cy="21" r="21" transform="translate(647.806 216.5)" fill="#474a5d"/>
      <g id="Ellipse_19" data-name="Ellipse 19" transform="translate(628.806 497.5)" fill="#626577" stroke="#474a5d" stroke-width="4">
        <circle cx="25.5" cy="25.5" r="25.5" stroke="none"/>
        <circle cx="25.5" cy="25.5" r="23.5" fill="none"/>
      </g>
      <g id="Ellipse_20" data-name="Ellipse 20" transform="translate(768.806 170.5)" fill="#626577" stroke="#474a5d" stroke-width="4">
        <circle cx="25.5" cy="25.5" r="25.5" stroke="none"/>
        <circle cx="25.5" cy="25.5" r="23.5" fill="none"/>
      </g>
      <circle id="Ellipse_21" data-name="Ellipse 21" cx="6.5" cy="6.5" r="6.5" transform="translate(577.806 141.5)" fill="#474a5d"/>
      <circle id="Ellipse_22" data-name="Ellipse 22" cx="6.5" cy="6.5" r="6.5" transform="translate(777.806 271.5)" fill="#474a5d"/>
      <circle id="Ellipse_23" data-name="Ellipse 23" cx="6.5" cy="6.5" r="6.5" transform="translate(727.806 221.5)" fill="#474a5d"/>
      <circle id="Ellipse_24" data-name="Ellipse 24" cx="6.5" cy="6.5" r="6.5" transform="translate(687.806 351.5)" fill="#474a5d"/>
      <circle id="Ellipse_25" data-name="Ellipse 25" cx="6.5" cy="6.5" r="6.5" transform="translate(607.806 271.5)" fill="#474a5d"/>
      <circle id="Ellipse_26" data-name="Ellipse 26" cx="6.5" cy="6.5" r="6.5" transform="translate(755.806 333.5)" fill="#474a5d"/>
      <g id="Ellipse_27" data-name="Ellipse 27" transform="translate(726.806 438.5)" fill="#626577" stroke="#e96161" stroke-width="5">
        <circle cx="42" cy="42" r="42" stroke="none"/>
        <circle cx="42" cy="42" r="39.5" fill="none"/>
      </g>
      <g id="Ellipse_28" data-name="Ellipse 28" transform="translate(665.806 276.5)" fill="#ea6161" stroke="#e96161" stroke-width="5">
        <circle cx="17.5" cy="17.5" r="17.5" stroke="none"/>
        <circle cx="17.5" cy="17.5" r="15" fill="none"/>
      </g>
      <g id="Ellipse_29" data-name="Ellipse 29" transform="translate(448.806 438.5)" fill="#ea6161" stroke="#e96161" stroke-width="5">
        <circle cx="17.5" cy="17.5" r="17.5" stroke="none"/>
        <circle cx="17.5" cy="17.5" r="15" fill="none"/>
      </g>
      <circle id="Ellipse_30" data-name="Ellipse 30" cx="15" cy="15" r="15" transform="translate(147.806 596.5)" fill="#787b8b"/>
      <circle id="Ellipse_31" data-name="Ellipse 31" cx="15" cy="15" r="15" transform="translate(110.806 432.5)" fill="#787b8b"/>
      <circle id="Ellipse_32" data-name="Ellipse 32" cx="23.5" cy="23.5" r="23.5" transform="translate(139.806 190.5)" fill="#787b8b"/>
      <circle id="Ellipse_33" data-name="Ellipse 33" cx="23.5" cy="23.5" r="23.5" transform="matrix(0.999, 0.035, -0.035, 0.999, 426.64, 800.694)" fill="#787b8b"/>
      <circle id="Ellipse_34" data-name="Ellipse 34" cx="23.5" cy="23.5" r="23.5" transform="matrix(0.999, 0.035, -0.035, 0.999, 1.64, 325.694)" fill="#676a7c"/>
      <g id="Ellipse_35" data-name="Ellipse 35" transform="matrix(0.999, 0.035, -0.035, 0.999, 12.64, 168.694)" fill="#626577" stroke="#676a7c" stroke-width="6">
        <circle cx="32" cy="32" r="32" stroke="none"/>
        <circle cx="32" cy="32" r="29" fill="none"/>
      </g>
      <circle id="Ellipse_36" data-name="Ellipse 36" cx="16.5" cy="16.5" r="16.5" transform="matrix(0.999, 0.035, -0.035, 0.999, 1.64, 736.694)" fill="#676a7c"/>
      <g id="Ellipse_37" data-name="Ellipse 37" transform="translate(545.806 73.5)" fill="#ea6161" stroke="#e96161" stroke-width="5">
        <circle cx="17.5" cy="17.5" r="17.5" stroke="none"/>
        <circle cx="17.5" cy="17.5" r="15" fill="none"/>
      </g>
      <circle id="Ellipse_38" data-name="Ellipse 38" cx="15" cy="15" r="15" transform="translate(90.806 815.5)" fill="#474a5d"/>
      <circle id="Ellipse_39" data-name="Ellipse 39" cx="15" cy="15" r="15" transform="translate(225.806 815.5)" fill="#474a5d"/>
    </g>
  </g>
</svg>
