<svg xmlns="http://www.w3.org/2000/svg" width="105.385" height="51.016" viewBox="0 0 105.385 51.016">
  <g id="Logo" transform="translate(-132.151 -12.045)">
    <path id="Path_10" data-name="Path 10" d="M6.24-11.328a12.5,12.5,0,0,1,.336-2.912,7.712,7.712,0,0,1,1.072-2.512,5.438,5.438,0,0,1,1.92-1.76,5.865,5.865,0,0,1,2.88-.656,5.865,5.865,0,0,1,2.88.656,5.438,5.438,0,0,1,1.92,1.76A7.712,7.712,0,0,1,18.32-14.24a12.5,12.5,0,0,1,.336,2.912,11.631,11.631,0,0,1-.336,2.8A7.567,7.567,0,0,1,17.248-6.08a5.494,5.494,0,0,1-1.92,1.744,5.865,5.865,0,0,1-2.88.656,5.865,5.865,0,0,1-2.88-.656A5.494,5.494,0,0,1,7.648-6.08,7.567,7.567,0,0,1,6.576-8.528,11.631,11.631,0,0,1,6.24-11.328Zm-5.024,0a13.8,13.8,0,0,0,.768,4.656,11.12,11.12,0,0,0,2.208,3.76A10.114,10.114,0,0,0,7.728-.4a11.716,11.716,0,0,0,4.72.912A11.686,11.686,0,0,0,17.184-.4,10.149,10.149,0,0,0,20.7-2.912a11.12,11.12,0,0,0,2.208-3.76,13.8,13.8,0,0,0,.768-4.656,14.276,14.276,0,0,0-.768-4.752A11.415,11.415,0,0,0,20.7-19.9a10.132,10.132,0,0,0-3.52-2.56,11.511,11.511,0,0,0-4.736-.928,11.54,11.54,0,0,0-4.72.928A10.1,10.1,0,0,0,4.192-19.9,11.415,11.415,0,0,0,1.984-16.08,14.276,14.276,0,0,0,1.216-11.328Zm30.912-1.184v-6.432h5.5a3.856,3.856,0,0,1,2.592.752,3.045,3.045,0,0,1,.864,2.416,3.188,3.188,0,0,1-.864,2.5,3.8,3.8,0,0,1-2.592.768ZM27.1-22.848V0h5.024V-8.928h5.024a3.739,3.739,0,0,1,2.72.832A4.538,4.538,0,0,1,40.96-5.472q.192,1.376.288,2.88A8.858,8.858,0,0,0,41.76,0h5.024a3.363,3.363,0,0,1-.528-1.168A10.09,10.09,0,0,1,46-2.624q-.08-.768-.112-1.5t-.064-1.28a13.73,13.73,0,0,0-.24-1.728,5.81,5.81,0,0,0-.56-1.584,4.347,4.347,0,0,0-.992-1.248,3.875,3.875,0,0,0-1.536-.784v-.064a5.328,5.328,0,0,0,2.768-2.24,6.869,6.869,0,0,0,.848-3.488,6.411,6.411,0,0,0-.464-2.448,5.9,5.9,0,0,0-1.344-2,6.371,6.371,0,0,0-2.112-1.36,7.355,7.355,0,0,0-2.768-.5Zm23.1,0V0h5.024V-7.36l2.88-2.912L64.992,0h6.3L61.5-13.824l8.928-9.024H64.16l-8.928,9.472v-9.472ZM89.824-2.592,90.336,0h3.2V-12.352h-9.6v3.744h5.056a5.494,5.494,0,0,1-1.584,3.664A5.454,5.454,0,0,1,83.552-3.68a5.865,5.865,0,0,1-2.88-.656,5.494,5.494,0,0,1-1.92-1.744A7.567,7.567,0,0,1,77.68-8.528a11.631,11.631,0,0,1-.336-2.8,12.5,12.5,0,0,1,.336-2.912,7.712,7.712,0,0,1,1.072-2.512,5.438,5.438,0,0,1,1.92-1.76,5.865,5.865,0,0,1,2.88-.656,5.025,5.025,0,0,1,3.1.96,4.807,4.807,0,0,1,1.728,2.88h4.8a8.529,8.529,0,0,0-1.056-3.456,8.5,8.5,0,0,0-2.192-2.528,9.656,9.656,0,0,0-2.976-1.552,11.1,11.1,0,0,0-3.408-.528,11.54,11.54,0,0,0-4.72.928A10.1,10.1,0,0,0,75.3-19.9a11.415,11.415,0,0,0-2.208,3.824,14.276,14.276,0,0,0-.768,4.752,13.8,13.8,0,0,0,.768,4.656A11.12,11.12,0,0,0,75.3-2.912,10.114,10.114,0,0,0,78.832-.4a11.716,11.716,0,0,0,4.72.912,8.419,8.419,0,0,0,3.3-.688A7.53,7.53,0,0,0,89.824-2.592Z" transform="translate(144 51)" fill="#e86161"/>
    <line id="Line_3" data-name="Line 3" x1="2" y1="4" transform="translate(148.5 25.5)" fill="none" stroke="#e56868" stroke-width="2"/>
    <g id="Ellipse_1" data-name="Ellipse 1" transform="translate(143 19)" fill="#fff" stroke="#e56868" stroke-width="2">
      <circle cx="4.5" cy="4.5" r="4.5" stroke="none"/>
      <circle cx="4.5" cy="4.5" r="3.5" fill="none"/>
    </g>
    <line id="Line_4" data-name="Line 4" y1="4" x2="2" transform="matrix(0.875, 0.485, -0.485, 0.875, 151.595, 18.266)" fill="none" stroke="#e56868" stroke-width="2"/>
    <g id="Ellipse_2" data-name="Ellipse 2" transform="translate(152 14)" fill="#fff" stroke="#e56868" stroke-width="2">
      <circle cx="4" cy="4" r="4" stroke="none"/>
      <circle cx="4" cy="4" r="3" fill="none"/>
    </g>
    <line id="Line_5" data-name="Line 5" x1="2" y1="4" transform="matrix(-0.777, -0.629, 0.629, -0.777, 154.018, 55.684)" fill="none" stroke="#e56868" stroke-width="2"/>
    <g id="Ellipse_3" data-name="Ellipse 3" transform="matrix(-0.97, 0.242, -0.242, -0.97, 166.471, 60.837)" fill="#fff" stroke="#e56868" stroke-width="2">
      <circle cx="3.5" cy="3.5" r="3.5" stroke="none"/>
      <circle cx="3.5" cy="3.5" r="2.5" fill="none"/>
    </g>
    <line id="Line_6" data-name="Line 6" y1="4" x2="2" transform="matrix(-0.454, -0.891, 0.891, -0.454, 156.172, 61.299)" fill="none" stroke="#e56868" stroke-width="2"/>
    <g id="Ellipse_4" data-name="Ellipse 4" transform="matrix(-0.97, 0.242, -0.242, -0.97, 157.12, 61.126)" fill="#fff" stroke="#e56868" stroke-width="2">
      <circle cx="4" cy="4" r="4" stroke="none"/>
      <circle cx="4" cy="4" r="3" fill="none"/>
    </g>
    <line id="Line_7" data-name="Line 7" x1="6" y1="4" transform="translate(139.5 17.5)" fill="none" stroke="#e56868" stroke-width="2"/>
    <g id="Ellipse_5" data-name="Ellipse 5" transform="matrix(-0.97, 0.242, -0.242, -0.97, 142.471, 18.837)" fill="#fff" stroke="#e56868" stroke-width="2">
      <circle cx="3.5" cy="3.5" r="3.5" stroke="none"/>
      <circle cx="3.5" cy="3.5" r="2.5" fill="none"/>
    </g>
    <line id="Line_8" data-name="Line 8" x1="6" y1="1" transform="translate(139.5 37.5)" fill="none" stroke="#e56868" stroke-width="2"/>
    <g id="Ellipse_6" data-name="Ellipse 6" transform="matrix(-0.97, 0.242, -0.242, -0.97, 140.637, 39.185)" fill="#fff" stroke="#e56868" stroke-width="2">
      <circle cx="3.5" cy="3.5" r="3.5" stroke="none"/>
      <circle cx="3.5" cy="3.5" r="2.5" fill="none"/>
    </g>
    <g id="Ellipse_7" data-name="Ellipse 7" transform="matrix(-0.97, 0.242, -0.242, -0.97, 143.014, 49.262)" fill="#fff" stroke="#e56868" stroke-width="2">
      <circle cx="3.5" cy="3.5" r="3.5" stroke="none"/>
      <circle cx="3.5" cy="3.5" r="2.5" fill="none"/>
    </g>
    <line id="Line_9" data-name="Line 9" x1="1.488" y1="3.92" transform="translate(137.5 39.5)" fill="none" stroke="#e56868" stroke-width="2"/>
  </g>
</svg>
