<?xml version="1.0" encoding="utf-8"?>
<!-- Generator: Adobe Illustrator 23.0.3, SVG Export Plug-In . SVG Version: 6.00 Build 0)  -->
<svg version="1.1" id="Layer_1" xmlns="http://www.w3.org/2000/svg" xmlns:xlink="http://www.w3.org/1999/xlink" x="0px" y="0px"
	 viewBox="0 0 256.4 364.7" style="enable-background:new 0 0 256.4 364.7;" xml:space="preserve">
<style type="text/css">
	.st0{fill:#E86161;}
	.st1{fill:#C0C2CC;}
	.st2{fill:#BFC2CD;}
	.st3{fill:#80869B;}
</style>
<g>
	<g>
		<path class="st0" d="M14.3,321.5c0-18.2,11.4-31.7,29.3-31.7c17.9,0,29.3,13.5,29.3,31.7c0,18.2-11.3,31.6-29.3,31.6
			C25.7,353.1,14.3,339.7,14.3,321.5z M60.3,321.5c0-12.2-5.4-21.6-16.6-21.6c-11.1,0-16.8,9.4-16.8,21.6c0,12.1,5.7,21.5,16.8,21.5
			C54.9,343,60.3,333.6,60.3,321.5z"/>
		<path class="st0" d="M79.6,291h27.9c11.7,0,19.6,6.8,19.6,16.9c0,7.1-3.3,12.6-11.1,14.7v0.3c5.6,1.6,8.5,4.8,9.3,12.2
			c0.9,8.6,0.5,15.1,2.6,16.1v0.6H116c-1.5-0.7-1.7-7.5-2.2-14c-0.5-6.6-4.3-10.4-11.9-10.4h-10v24.4H79.6V291z M91.9,317.8H105
			c6.7,0,10-3.5,10-8.3c0-4.9-3.1-8.6-9.7-8.6H91.9V317.8z"/>
		<path class="st0" d="M135,291h12.3v24.2l23.4-24.2H186l-23.8,24.3l25.3,36.5h-14.5l-19.6-28.4l-6.2,6.3v22.1H135V291z"/>
		<path class="st0" d="M231.3,343.6h-0.2c-4.2,7-9.9,9.4-17.1,9.4c-9.2,0-16.3-3.3-21.3-8.8c-5-5.6-7.9-13.4-7.9-22.6
			c0-10.1,3.6-19,9.9-24.8c4.9-4.5,11.4-7,19.6-7c15.3,0,24.1,8.4,26,20.3h-12.1c-1.4-5.9-5.9-10.1-13.7-10.1
			c-11.5,0-17.2,9.5-17.2,21.6c0,12.4,6.5,21.5,17,21.5c9.4,0,15.6-7.1,15.6-13.8V329h-14.6v-9.5H241v32.3h-9.3L231.3,343.6z"/>
	</g>
</g>
<g>
	<path class="st0" d="M234.9,82.9l0-2.1c-0.1-0.7-0.2-1.4-0.2-2.1c-0.4-2.8-1.3-5.7-2.9-8.2c-1.5-2.6-3.6-4.7-5.8-6.4
		c-2.3-1.6-4.8-2.8-7.2-3.6c-5-1.6-9.9-2-14.8-2c-4.8,0.1-9.5,0.7-14.2,1.6c-9.2,1.8-18.1,4.7-26.6,8.2c4.5-0.9,9-1.8,13.6-2.4
		c4.5-0.7,9.1-1.1,13.6-1.4c4.5-0.2,9-0.2,13.3,0.3c4.3,0.5,8.6,1.4,12.2,3c3.6,1.7,6.5,4.1,7.8,7.1c1.4,3,1.4,6.6,0.6,10.3
		c-0.9,3.7-2.5,7.6-4.6,11.2c-2,3.7-4.5,7.2-7.1,10.7c-1.6,2.1-3.3,4.1-5.1,6.2c4,2,7.3,5.2,9.6,9c2-2.5,3.9-5.1,5.7-7.8
		c2.7-4,5.2-8.3,7.3-12.8c2.1-4.5,3.8-9.4,4.5-14.7c0.1-0.7,0.1-1.4,0.2-2l0.1-1C235,83.6,234.9,83.2,234.9,82.9z"/>
	<circle class="st0" cx="197.1" cy="134" r="16.8"/>
	<g>
		<path class="st0" d="M65.4,198.9c0-0.6,0-1.1,0.1-1.7c-3.7,0.8-7.4,1.4-11.1,1.8c-2.1,0.2-4.2,0.4-6.3,0.5c-2.1,0.1-4.1,0-6.1-0.1
			c-4-0.3-7.8-1.1-10.8-2.6c-3-1.5-5-3.6-6-6.5c-1-2.9-0.9-6.7,0-10.6c0.9-3.9,2.5-7.9,4.4-11.7c2-3.9,4.2-7.7,6.8-11.3
			c5-7.4,10.8-14.4,17-21.1c6.2-6.7,12.7-13.1,19.5-19.4c-7.8,4.9-15.4,10.2-22.6,16.2c-7.2,5.9-14,12.4-20.1,19.6
			c-3.1,3.6-5.9,7.4-8.6,11.5c-2.6,4.1-4.9,8.5-6.5,13.5c-0.8,2.5-1.4,5.1-1.7,7.9c-0.2,2.8-0.1,5.7,0.6,8.7c0.8,3,2.2,5.9,4.1,8.3
			c1.9,2.5,4.4,4.5,6.9,5.9c2.5,1.5,5.1,2.6,7.7,3.3c2.6,0.8,5.2,1.3,7.8,1.6c5.1,0.7,10.1,0.7,15.1,0.4c4.6-0.3,9.1-0.9,13.5-1.7
			C66.7,207.8,65.4,203.5,65.4,198.9z"/>
		<path class="st0" d="M175.5,142.6c-0.4,0.3-0.9,0.7-1.3,1c-7.1,5.4-14.5,10.5-22.1,15.3c-7.6,4.8-15.3,9.4-23.2,13.6
			c-7.5,4-15.1,7.7-22.8,11.1c3.5,4,5.6,9.1,5.7,14.8c8.4-3.5,16.6-7.5,24.6-11.7c8.3-4.5,16.4-9.3,24.2-14.4
			c7.8-5.2,15.5-10.7,22.8-16.6c0.6-0.5,1.2-1,1.8-1.5C180.9,151.4,177.4,147.4,175.5,142.6z"/>
	</g>
	<circle class="st1" cx="88.6" cy="198.9" r="16.8"/>
	<path class="st2" d="M86.7,45.2c4.9,0,9.4,1.5,13.1,4.1c1.1-3.1,2.3-6.2,3.6-9.1c1.7-3.9,3.7-7.6,6-10.8c0.6-0.8,1.1-1.6,1.8-2.3
		l0.9-1.1l1-1c0.6-0.7,1.3-1.2,2-1.8c0.3-0.3,0.7-0.5,1-0.8c0.3-0.3,0.7-0.5,1-0.7l1-0.6c0.4-0.1,0.7-0.3,1.1-0.4
		c0.3-0.2,0.7-0.2,1.1-0.3c0.4-0.1,0.7-0.2,1.1-0.3c1.4-0.3,2.9-0.2,4.4,0.1c3,0.7,6.2,2.8,9.1,5.6c1.5,1.4,2.8,3,4.1,4.6
		c1.3,1.7,2.5,3.4,3.7,5.2c2.4,3.6,4.4,7.5,6.4,11.6c3.8,8,7,16.6,9.7,25.2c2.7,8.7,5,17.6,7,26.6c-0.1-4.6-0.5-9.2-0.9-13.8
		c-0.5-4.6-1-9.2-1.8-13.8c-1.5-9.2-3.6-18.3-6.7-27.2c-1.6-4.5-3.4-8.9-5.6-13.2c-2.2-4.3-4.8-8.5-8.2-12.4
		c-1.7-1.9-3.6-3.8-5.8-5.5c-2.2-1.6-4.8-3.1-7.6-4.1c-2.9-1-6.1-1.4-9.2-1.1c-0.8,0-1.5,0.2-2.3,0.3c-0.8,0.2-1.5,0.3-2.3,0.6
		l-2.2,0.8c-0.7,0.3-1.3,0.6-2,1c-0.7,0.3-1.3,0.7-1.9,1.1c-0.6,0.4-1.2,0.8-1.8,1.2c-1.1,0.9-2.3,1.7-3.2,2.6l-1.5,1.4l-1.4,1.5
		c-0.9,1-1.7,2-2.6,3c-3.2,4.1-5.8,8.4-8,12.8c-1.9,3.7-3.5,7.4-4.9,11.2C86,45.2,86.3,45.2,86.7,45.2z"/>
	<g>
		<path class="st2" d="M75.9,173.3c0.3,1.8,0.6,3.7,0.9,5.5c3.5-2,7.5-3.2,11.8-3.2c1,0,2,0.1,2.9,0.2c-0.2-1.5-0.4-3-0.6-4.6
			c-0.5-4.4-1-8.9-1.4-13.3c-0.3-4.5-0.6-8.9-0.8-13.4c-0.4-8.9-0.4-17.9-0.1-26.8c0.3-8.8,1-17.7,2-26.4c-1.3,0.2-2.7,0.4-4.1,0.4
			c-4.2,0-8.1-1.1-11.5-3.1c0,0.1,0,0.3-0.1,0.4c-1.2,9.4-2,18.7-2.4,28.1c-0.3,9.4-0.2,18.8,0.3,28.2
			C73.6,154.7,74.5,164,75.9,173.3z"/>
		<path class="st2" d="M151.1,227c-1.1,2-2.2,3.9-3.3,5.8c-1.2,1.9-2.4,3.7-3.7,5.4c-2.6,3.5-5.6,6.6-8.9,8.7
			c-3.3,2.1-6.8,3.1-10.1,2.5c-0.2,0-0.4-0.1-0.6-0.1l-0.6-0.2l-0.6-0.1c-0.2-0.1-0.4-0.2-0.6-0.2c-0.4-0.2-0.8-0.3-1.2-0.5
			l-1.2-0.6c-1.5-0.9-3-2-4.4-3.5c-2.8-2.7-5.2-6.1-7.3-9.8c-2.1-3.7-3.9-7.6-5.5-11.6c-0.6-1.5-1.2-3-1.7-4.5
			c-3.6,2.3-7.8,3.7-12.4,3.8c0.8,1.9,1.7,3.9,2.6,5.8c2.1,4.4,4.4,8.6,7.2,12.7c2.8,4.1,6,8,10.1,11.4c2,1.7,4.3,3.2,6.9,4.4
			c2.5,1.2,5.4,2,8.3,2.2c2.9,0.2,5.9-0.3,8.6-1.3c2.7-1,5-2.4,7.1-4.1c2-1.7,3.8-3.5,5.3-5.5c1.6-2,2.9-4,4.1-6.1
			c2.4-4.2,4.3-8.5,5.9-12.9c3.2-8.8,5.1-17.9,6.4-27C158.6,210.5,155.2,219,151.1,227z"/>
	</g>
	<g>
		<path class="st3" d="M32.6,69.3c3.5-1.3,7.6-1.8,11.8-1.8c4.2-0.1,8.5,0.3,12.8,0.9c2.1,0.3,4.2,0.7,6.3,1.1c0-0.4,0-0.7,0-1.1
			c0-4.2,1.1-8.2,3.1-11.6c-2.6-0.4-5.3-0.7-8-0.9c-4.9-0.4-9.8-0.5-14.9,0c-5,0.5-10.2,1.4-15.2,3.8c-2.5,1.2-4.9,2.7-7.1,4.7
			c-2.1,2-4,4.5-5.1,7.2c-1.1,2.7-1.7,5.6-1.7,8.4c0,2.8,0.3,5.4,1,7.9c1.3,5,3.5,9.4,5.9,13.6c2.5,4.1,5.3,8,8.4,11.5
			c6.1,7.2,12.9,13.6,20.1,19.4c-3-3.5-5.9-7.1-8.7-10.8c-2.8-3.7-5.4-7.4-7.8-11.2c-2.4-3.8-4.6-7.8-6.4-11.8
			c-1.8-4-3.2-8.2-3.8-12.2c-0.6-4-0.2-7.9,1.4-10.8C26.3,72.6,29.1,70.6,32.6,69.3z"/>
		<g>
			<path class="st3" d="M175.4,125.7c1.9-5.1,5.6-9.3,10.4-12c-7.1-5.7-14.5-11.1-22-16.1c-7.9-5.2-16-10.1-24.3-14.6
				c-8.3-4.4-16.8-8.6-25.6-12.2c-1.3-0.5-2.6-1.1-3.9-1.6c-0.2,5.4-2.1,10.3-5.3,14.1c1.1,0.5,2.1,0.9,3.2,1.4
				c8.2,3.7,16.2,7.8,24.1,12.2c7.9,4.4,15.6,9.1,23.1,14.1C161.9,115.6,168.8,120.5,175.4,125.7z"/>
			<path class="st3" d="M236.1,185.6c0-5.8-1.5-11-3.4-15.8c-1.9-4.8-4.3-9.2-7-13.4c-2.5-4-5.3-7.8-8.2-11.4
				c-2.4,4.4-6.1,7.9-10.7,10.1c2.5,3,5,6,7.1,9.1c2.5,3.5,4.7,7.2,6.4,10.8c1.7,3.7,3,7.5,3.2,10.9c0,0.4,0.1,0.9,0.1,1.3
				c0,0.4,0,0.8,0,1.2c0,0.4-0.1,0.8-0.2,1.2l-0.1,0.6l-0.2,0.5c-0.4,1.5-1,2.8-2,3.9c-1,1.2-2.2,2.2-3.8,3.1
				c-0.7,0.5-1.6,0.8-2.5,1.2c-0.9,0.3-1.8,0.7-2.7,1c-0.9,0.3-1.9,0.5-2.9,0.8c-1,0.2-2,0.4-3.1,0.5c-2.1,0.3-4.2,0.4-6.4,0.5
				c-4.3,0.2-8.8-0.1-13.2-0.5c-8.9-0.9-17.9-2.7-26.7-5c-8.9-2.3-17.7-5-26.4-8.1c4,2.3,8.1,4.5,12.3,6.6c4.2,2,8.4,4,12.7,5.7
				c8.6,3.6,17.6,6.5,26.9,8.5c4.7,1,9.4,1.7,14.3,2c2.4,0.1,4.9,0.2,7.4,0c1.3,0,2.5-0.2,3.8-0.3c1.3-0.2,2.6-0.3,3.8-0.6
				c2.6-0.5,5.2-1.3,7.8-2.6c2.6-1.2,5.1-2.9,7.2-5.1c2.2-2.2,3.9-5,4.9-7.9l0.4-1.1l0.3-1.1c0.2-0.7,0.4-1.5,0.5-2.2l0.2-2.2
				C236.2,187,236.1,186.3,236.1,185.6z"/>
		</g>
	</g>
	<circle class="st3" cx="86.7" cy="68.4" r="16.8"/>
</g>
</svg>
