<svg id="Ebene_1" data-name="Ebene 1" xmlns="http://www.w3.org/2000/svg" viewBox="0 0 291.97 274.96"><defs><style>.cls-1,.cls-2{fill:none;stroke:#000;stroke-miterlimit:10;stroke-width:12px;}.cls-1{stroke-linecap:round;}</style></defs><path class="cls-1" d="M124.11,22.88H174c23.37,0,42.34,18.87,42.52,41.22"/><path class="cls-1" d="M133.42,241.63H70.31A22.67,22.67,0,0,1,47.64,219V111.64"/><line class="cls-1" x1="216.55" y1="90.83" x2="216.55" y2="147.55"/><path class="cls-2" d="M216.55,64.1H199.22a22.67,22.67,0,0,1-22.67-22.68V23"/><path d="M27,5.32c11.55.32,20.54,10.59,20.86,22.46.64,15.09-1.93,39.16-26,60.34-5.13,4.81-9.95,4.17-13.16.64-3.52-3.85-2.56-8.67,2.57-14.12C20,65.65,28,55.38,29,49l-4.17-.32c-11.87-1-21.18-11.23-20.22-22.78A21.32,21.32,0,0,1,27,5.32Zm56.16,0c11.55.32,20.54,10.59,20.54,22.46.64,15.09-1.93,39.16-25.68,60.34-5.13,4.81-10.26,4.17-13.15.64-3.53-3.85-2.57-8.67,2.24-14.12,8.67-9,16.69-19.26,17.65-25.68l-4.17-.32c-11.55-1-20.86-11.23-20.22-22.78A21.8,21.8,0,0,1,83.2,5.32Z"/><path d="M175.65,255c-11.55-.32-20.54-10.59-20.54-22.46-.64-15.09,1.93-39.16,25.68-60.34,5.13-4.81,10.27-4.17,13.16-.64,3.53,3.85,2.56,8.67-2.25,14.12C183,194.7,175,205,174.05,211.39l4.17.32c11.55,1,20.86,11.23,20.22,22.78A21.8,21.8,0,0,1,175.65,255Zm56.17,0c-11.56-.32-20.54-10.59-20.86-22.46-.65-15.09,1.92-39.16,26-60.34,5.14-4.81,10-4.17,13.16-.64,3.53,3.85,2.57,8.67-2.57,14.12-8.66,9-16.69,19.26-17.65,25.68l4.17.32c11.88,1,21.18,11.23,20.22,22.78A21.32,21.32,0,0,1,231.82,255Z"/></svg>