<svg id="Ebene_1" data-name="Ebene 1" xmlns="http://www.w3.org/2000/svg" viewBox="0 0 291.97 274.96"><defs><style>.cls-1,.cls-2{fill:none;stroke:#000;stroke-miterlimit:10;stroke-width:12px;}.cls-1{stroke-linecap:round;}</style></defs><path class="cls-1" d="M48,69.32V45.58A22.69,22.69,0,0,1,70.71,22.9H174.42c23.38,0,42.35,18.87,42.52,41.22"/><path class="cls-1" d="M216.94,90.85V219a22.67,22.67,0,0,1-22.67,22.68H70.71A22.68,22.68,0,0,1,48,219V133.83"/><path class="cls-2" d="M216.94,64.12H199.62a22.68,22.68,0,0,1-22.68-22.67V23"/><path d="M138.46,151,141,130.56H181.5l6.37,51.3Zm-2.74,22.08-7.17,51.52,65.43.32-2.92-17.28Zm-.06-54.29a4.31,4.31,0,0,0,1.39,3.17h49a4.31,4.31,0,0,0-2.92-7.48H179.5l-2.75-22A4.31,4.31,0,0,0,175.62,84h-.24a13.84,13.84,0,0,0-13.11-9.19h-2.05A13.82,13.82,0,0,0,147.1,84a4.31,4.31,0,0,0-1.34,8.26l-.69,5.52h13.11a3.42,3.42,0,0,1,1.24.24,3.15,3.15,0,0,1,1.86,2.21,3.32,3.32,0,0,1,.16.62h0v3.37a3.42,3.42,0,0,1-.16.63,3.46,3.46,0,0,1-.93,1.59,3.75,3.75,0,0,1-2.17,1.11H143.89l-.9,6.9h-3A4.31,4.31,0,0,0,135.66,118.77ZM26,93.31v18.74a4.22,4.22,0,0,0,1.45,3.3,4,4,0,0,0,2.67,1,3.84,3.84,0,0,0,.76-.07l108.43-9.37a4.31,4.31,0,0,0,0-8.49L30.91,89.06A4.17,4.17,0,0,0,26,93.31Z"/></svg>