<svg id="Ebene_1" data-name="Ebene 1" xmlns="http://www.w3.org/2000/svg" viewBox="0 0 291.97 274.96"><defs><style>.cls-1,.cls-2,.cls-3,.cls-4,.cls-5{fill:none;stroke:#000;}.cls-1,.cls-2,.cls-3,.cls-5{stroke-miterlimit:10;}.cls-1,.cls-2{stroke-width:12px;}.cls-2,.cls-4,.cls-5{stroke-linecap:round;}.cls-3,.cls-4,.cls-5{stroke-width:11px;}.cls-4{stroke-linejoin:round;}</style></defs><path class="cls-1" d="M238,57.8l-17.15,2.49a22.67,22.67,0,0,1-25.7-19.17l-2.65-18.24"/><path class="cls-1" d="M123,255.17l-14.6,1.47a22.69,22.69,0,0,0,25.66,3.5l22.21-9.58-33.4,3.3Z"/><path class="cls-1" d="M127,18.15l-9.91,5.06h56.55A42.8,42.8,0,0,0,127,18.15Z"/><path class="cls-1" d="M47.83,58.56,34.6,65.32a22.68,22.68,0,0,0-9.89,30.51l22.1,43.27c.32-.5.65-1,1-1.57Z"/><path class="cls-1" d="M71.5,105.79a7.78,7.78,0,0,1,2-5.77L68.23,63.67A22.67,22.67,0,0,1,87.41,38l95.46-13.88a42.44,42.44,0,0,0-8.65-.88H70.51A22.67,22.67,0,0,0,47.83,45.88v91.65C54.94,126.82,71.5,105.79,71.5,105.79Z"/><path class="cls-2" d="M238.05,57.72c-3.39-22.09-24.87-38-48-34.68l-7.17,1.05L87.41,38a22.67,22.67,0,0,0-19.18,25.7L73.51,100a9.82,9.82,0,0,1,5.8-2.76"/><polygon class="cls-1" points="122.9 253.86 120.99 234.94 63.27 240.77 32.83 243.85 34.87 264.08 108.43 256.64 123.03 255.16 122.9 253.86"/><polygon class="cls-1" points="110.29 235.87 109 220.43 49.01 226.49 39.27 227.47 40.56 242.92 110.29 235.87"/><path class="cls-3" d="M99.77,219.63s7.64,0,4.8-26c-1.71-15.56-14.32-85.4-14.32-85.4S88,95.18,79.31,96.59a9.82,9.82,0,0,0-5.8,2.76,7.78,7.78,0,0,0-2,5.77s-16.56,21-23.67,31.75c-.37.55-.7,1.07-1,1.56a22.58,22.58,0,0,0-2.06,3.75c-1.88,5.48-3.87,8.65-.89,25.64,1.26,7.23,2.74,16.05,4,24.15,1.65,10.94,2.83,20.59,2.36,23.33-.37,2.18-2.8,10.65-2.8,10.65Z"/><path class="cls-4" d="M90.61,110.5s-1.23-12.89-11-11.74-6.93,13.12-6.93,13.12,6.23,45.19,4.48,48.64"/><path class="cls-5" d="M121,234.94l1.91,18.92,32.82-4.77,85.43-12.42A22.67,22.67,0,0,0,260.33,211l-3.85-26.5-1.14-7.87L241.9,84.17"/></svg>