<svg id="Ebene_1" data-name="Ebene 1" xmlns="http://www.w3.org/2000/svg" viewBox="0 0 291.97 274.96"><defs><style>.cls-1,.cls-2,.cls-3{fill:none;stroke:#000;stroke-width:12px;}.cls-1,.cls-2{stroke-linecap:round;}.cls-1{stroke-linejoin:round;}.cls-2,.cls-3{stroke-miterlimit:10;}</style></defs><polyline class="cls-1" points="42.94 125.3 54.32 136.18 76.34 114.8"/><polyline class="cls-1" points="42.94 179.17 54.32 190.05 76.34 168.67"/><polyline class="cls-1" points="42.94 234.37 54.32 245.25 76.34 223.87"/><line class="cls-1" x1="107.7" y1="110.84" x2="128.31" y2="110.84"/><line class="cls-1" x1="107.7" y1="129.46" x2="158.16" y2="129.46"/><line class="cls-1" x1="107.7" y1="166.71" x2="128.31" y2="166.71"/><line class="cls-1" x1="107.7" y1="185.33" x2="158.16" y2="185.33"/><line class="cls-1" x1="107.7" y1="222.57" x2="128.31" y2="222.57"/><line class="cls-1" x1="107.7" y1="241.19" x2="158.16" y2="241.19"/><path class="cls-2" d="M48.51,74.93V45.76A22.68,22.68,0,0,1,71.19,23.08H174.91c23.37,0,42.34,18.87,42.51,41.22"/><path class="cls-2" d="M217.43,91V219.16a22.68,22.68,0,0,1-22.68,22.67"/><path class="cls-3" d="M217.43,64.3H200.1a22.68,22.68,0,0,1-22.68-22.68V23.19"/></svg>