<svg id="Ebene_1" data-name="Ebene 1" xmlns="http://www.w3.org/2000/svg" viewBox="0 0 291.97 274.96"><defs><style>.cls-1,.cls-2{fill:none;stroke:#000;stroke-miterlimit:10;stroke-width:12px;}.cls-1{stroke-linecap:round;}</style></defs><path class="cls-1" d="M217.16,91.07V219.2a22.67,22.67,0,0,1-22.67,22.68H70.93A22.67,22.67,0,0,1,48.25,219.2V45.8A22.68,22.68,0,0,1,70.93,23.12H174.64C198,23.12,217,42,217.16,64.34"/><path class="cls-2" d="M217.16,64.34H199.84a22.67,22.67,0,0,1-22.68-22.67V23.23"/><line class="cls-1" x1="70.85" y1="119.87" x2="136.29" y2="119.87"/><line class="cls-1" x1="114.93" y1="94.57" x2="136.25" y2="119.87"/><line class="cls-1" x1="136.22" y1="119.85" x2="114.9" y2="145.15"/><line class="cls-1" x1="193.58" y1="161.11" x2="128.14" y2="161.11"/><line class="cls-1" x1="149.51" y1="135.81" x2="128.19" y2="161.11"/><line class="cls-1" x1="128.22" y1="161.09" x2="149.54" y2="186.39"/></svg>