<svg id="Ebene_1" data-name="Ebene 1" xmlns="http://www.w3.org/2000/svg" viewBox="0 0 291.97 274.96"><defs><style>.cls-1,.cls-2,.cls-3{fill:none;stroke:#000;stroke-width:12px;}.cls-1,.cls-3{stroke-linecap:round;}.cls-1,.cls-2{stroke-miterlimit:10;}.cls-3{stroke-linejoin:round;}</style></defs><path class="cls-1" d="M71,241.34a22.67,22.67,0,0,1-22.68-22.68V45.26A22.68,22.68,0,0,1,71,22.58H174.73c23.38,0,42.35,18.87,42.52,41.22"/><path class="cls-1" d="M217.25,90.53V218.66a22.67,22.67,0,0,1-22.67,22.68"/><path class="cls-2" d="M217.25,63.8H199.93a22.67,22.67,0,0,1-22.68-22.67V22.69"/><polyline class="cls-3" points="167.86 182.56 167.86 264.37 136.93 248.41 106.01 264.37 106.01 182.56"/><path d="M188.41,151.45l11.25-9.08-11.25-9.07,7.47-12.38-13.68-4.68L185,102.05l-14.46.28L168.3,88.05l-13.49,5.2-7-12.65-10.9,9.5L126,80.6l-7,12.65-13.49-5.2-2.24,14.28-14.45-.28,2.78,14.19L78,120.92l7.47,12.38-11.25,9.07,11.25,9.08L78,163.83l13.67,4.68-2.78,14.18,14.45-.27,2.24,14.28,13.49-5.21,7,12.66,10.89-9.5,10.9,9.5,7-12.66,13.49,5.21,2.23-14.28,14.46.27-2.79-14.18,13.68-4.68Zm-51.48,34.74a43.78,43.78,0,1,1,43.78-43.78A43.78,43.78,0,0,1,136.93,186.19Z"/></svg>