<svg width="167" height="58" viewBox="0 0 167 58" fill="none" xmlns="http://www.w3.org/2000/svg">
<g clip-path="url(#clip0_1384_634)">
<path d="M78.04 29.341C78.04 22.71 82.177 17.779 88.723 17.779C95.269 17.779 99.378 22.71 99.378 29.341C99.378 35.972 95.269 40.874 88.723 40.874C82.206 40.874 78.04 35.971 78.04 29.341ZM94.816 29.341C94.816 24.92 92.832 21.463 88.78 21.463C84.728 21.463 82.631 24.92 82.631 29.341C82.631 33.733 84.7 37.19 88.752 37.19C92.804 37.19 94.816 33.733 94.816 29.341Z" fill="white"/>
<path d="M101.843 18.233H112.016C116.295 18.233 119.129 20.698 119.129 24.41C119.219 25.6425 118.858 26.8656 118.112 27.8512C117.366 28.8367 116.288 29.5173 115.077 29.766V29.851C117.117 30.451 118.166 31.608 118.449 34.3C118.761 37.417 118.649 39.826 119.412 40.166V40.393H115.105C114.538 40.138 114.482 37.673 114.312 35.293C114.112 32.884 112.753 31.524 109.976 31.524H106.349V40.365H101.843V18.233ZM106.349 28.009H111.11C113.547 28.009 114.765 26.734 114.765 24.977C114.765 23.192 113.632 21.86 111.223 21.86H106.323V28.009H106.349Z" fill="white"/>
<path d="M122.019 18.232H126.525V27.045L135.054 18.204H140.636L131.936 27.073L141.174 40.363H135.903L128.79 30.02L126.523 32.32V40.368H122.019V18.232Z" fill="white"/>
<path d="M157.1 37.389H157.043C156.439 38.4953 155.531 39.4058 154.426 40.0133C153.322 40.6208 152.067 40.9 150.809 40.818C149.358 40.8709 147.914 40.6097 146.574 40.0522C145.234 39.4947 144.03 38.6541 143.045 37.588C141.054 35.1061 140.031 31.9857 140.166 28.8066C140.302 25.6274 141.587 22.6055 143.782 20.302C145.736 18.5683 148.284 17.655 150.895 17.752C156.477 17.752 159.651 20.812 160.388 25.152H155.995C155.513 23.027 153.87 21.468 151.008 21.468C146.814 21.468 144.746 24.925 144.746 29.346C144.746 33.88 147.126 37.195 150.952 37.195C152.369 37.2706 153.76 36.7878 154.825 35.8501C155.891 34.9124 156.547 33.5945 156.652 32.179V32.066H151.325V28.609H160.648V40.369H157.276L157.1 37.389Z" fill="white"/>
<path d="M63.763 17.924V17.442C63.735 17.272 63.735 17.13 63.706 16.96C63.617 16.313 63.3979 15.6906 63.0619 15.1305C62.7259 14.5704 62.28 14.0841 61.751 13.701C61.2524 13.355 60.7091 13.0785 60.136 12.879C59.0623 12.5519 57.9431 12.399 56.821 12.426C55.7554 12.4521 54.6939 12.5658 53.647 12.766C51.5971 13.1774 49.5939 13.7945 47.668 14.608C48.688 14.408 49.708 14.208 50.728 14.07C51.748 13.932 52.768 13.815 53.788 13.758C54.7878 13.6919 55.7914 13.711 56.788 13.815C57.733 13.9037 58.6596 14.1329 59.537 14.495C60.2959 14.7932 60.9204 15.3572 61.294 16.082C61.5869 16.8219 61.6366 17.6359 61.436 18.406C61.2121 19.2891 60.869 20.1376 60.416 20.928C59.9335 21.7607 59.4036 22.565 58.829 23.337C58.461 23.819 58.092 24.272 57.696 24.726C58.5908 25.1781 59.338 25.8761 59.85 26.738C60.303 26.171 60.728 25.576 61.125 24.981C61.7334 24.063 62.2825 23.1071 62.769 22.119C63.2606 21.0763 63.604 19.9699 63.789 18.832C63.8124 18.6822 63.8218 18.5306 63.817 18.379L63.845 18.152C63.8138 18.1236 63.79 18.0879 63.7757 18.0482C63.7614 18.0085 63.757 17.9658 63.763 17.924Z" fill="white"/>
<path d="M55.2568 33.167C57.3384 33.167 59.0258 31.4796 59.0258 29.398C59.0258 27.3165 57.3384 25.629 55.2568 25.629C53.1752 25.629 51.4878 27.3165 51.4878 29.398C51.4878 31.4796 53.1752 33.167 55.2568 33.167Z" fill="white"/>
<path d="M25.673 43.991C25.6682 43.8677 25.6776 43.7442 25.701 43.623C24.879 43.793 24.029 43.935 23.207 44.048C22.725 44.105 22.272 44.133 21.79 44.161C21.337 44.161 20.855 44.161 20.401 44.133C19.5655 44.0989 18.7458 43.8948 17.992 43.533C17.3634 43.2383 16.8753 42.7092 16.632 42.059C16.4184 41.28 16.4184 40.458 16.632 39.679C16.8623 38.7661 17.1951 37.8821 17.624 37.044C18.0687 36.1565 18.5801 35.304 19.154 34.494C20.3088 32.823 21.5878 31.2412 22.98 29.762C24.369 28.262 25.842 26.815 27.372 25.398C25.6055 26.4973 23.9113 27.7088 22.3 29.025C20.6658 30.3566 19.1489 31.826 17.766 33.417C17.0765 34.2404 16.4331 35.1014 15.839 35.996C15.2335 36.9443 14.7481 37.9641 14.394 39.032C14.2116 39.6036 14.0883 40.1923 14.026 40.789C13.9612 41.444 14.0093 42.1053 14.168 42.744C14.334 43.4301 14.6537 44.0695 15.103 44.614C15.5282 45.147 16.0466 45.5983 16.633 45.946C17.1764 46.2628 17.7572 46.5103 18.362 46.683C18.9384 46.8462 19.5255 46.9692 20.119 47.051C21.2383 47.1777 22.3667 47.2061 23.491 47.136C24.5078 47.071 25.5201 46.9481 26.523 46.768C25.948 45.958 25.6499 44.9841 25.673 43.991Z" fill="white"/>
<path d="M50.4112 31.324C50.3262 31.409 50.2112 31.466 50.1282 31.551C48.5132 32.769 46.8692 33.931 45.1692 34.98C43.4692 36.057 41.7402 37.08 39.9552 38.04C38.2832 38.947 36.5552 39.769 34.8262 40.534C35.6328 41.4536 36.0927 42.6262 36.1262 43.849C38.0248 43.0557 39.8668 42.1774 41.6522 41.214C43.5222 40.222 45.3362 39.114 47.0932 37.984C48.8502 36.822 50.5782 35.575 52.2222 34.244C52.3614 34.1379 52.495 34.0244 52.6222 33.904C51.6104 33.3239 50.8296 32.4127 50.4112 31.324Z" fill="white"/>
<path d="M30.8872 47.76C32.9687 47.76 34.6562 46.0726 34.6562 43.991C34.6562 41.9095 32.9687 40.222 30.8872 40.222C28.8056 40.222 27.1182 41.9095 27.1182 43.991C27.1182 46.0726 28.8056 47.76 30.8872 47.76Z" fill="white"/>
<path d="M30.4342 9.44803C31.4851 9.44876 32.5117 9.7647 33.3812 10.355C33.6362 9.64703 33.8912 8.96603 34.1742 8.28603C34.5532 7.4344 35.0084 6.61875 35.5342 5.84903C35.6762 5.67903 35.7892 5.48103 35.9342 5.31103L36.1342 5.05602L36.3612 4.82903C36.5032 4.65903 36.6732 4.54603 36.8142 4.40403C36.8992 4.34703 36.9562 4.29103 37.0412 4.23403C37.1101 4.17667 37.1865 4.12891 37.2682 4.09203L37.4952 3.95003C37.5726 3.92642 37.6484 3.89803 37.7222 3.86503C37.7947 3.82888 37.8708 3.8004 37.9492 3.78003C38.022 3.75096 38.0983 3.73179 38.1762 3.72302C38.5051 3.66179 38.8433 3.67134 39.1682 3.75103C39.952 3.98139 40.6577 4.42239 41.2082 5.02603C41.5482 5.33803 41.8312 5.70603 42.1432 6.04603C42.4398 6.42658 42.7143 6.82391 42.9652 7.23602C43.4976 8.07119 43.9701 8.94305 44.3792 9.84503C45.2273 11.6856 45.9551 13.5793 46.5582 15.514C47.1582 17.469 47.6632 19.453 48.1172 21.493C48.0892 20.445 48.0042 19.424 47.9172 18.376C47.8042 17.356 47.6902 16.307 47.5172 15.287C47.185 13.2092 46.6833 11.162 46.0172 9.16603C45.6622 8.15002 45.2457 7.15652 44.7702 6.19103C44.2772 5.18195 43.6583 4.23944 42.9282 3.38603C42.5364 2.93781 42.1009 2.52979 41.6282 2.16803C41.1062 1.7719 40.5218 1.46538 39.8992 1.26103C39.2357 1.02921 38.5282 0.951576 37.8302 1.03403C37.6582 1.04853 37.4876 1.07696 37.3202 1.11903C37.1475 1.14316 36.9769 1.18094 36.8102 1.23203L36.3282 1.40203C36.1717 1.46626 36.0203 1.54214 35.8752 1.62903C35.7218 1.69269 35.5786 1.77861 35.4502 1.88403C35.3082 1.96903 35.1672 2.05402 35.0502 2.13902C34.7921 2.32326 34.5459 2.52367 34.3132 2.73903L33.9732 3.05103L33.6612 3.39103C33.4557 3.60342 33.2662 3.83071 33.0942 4.07103C32.3973 4.96333 31.7897 5.92193 31.2802 6.93303C30.8611 7.74758 30.4934 8.58755 30.1792 9.44803H30.4342Z" fill="white"/>
<path d="M28.0249 38.239C28.0819 38.664 28.1669 39.061 28.2249 39.486C29.0239 39.018 29.934 38.7735 30.8599 38.778C31.0783 38.7817 31.2962 38.8007 31.5119 38.835C31.4549 38.495 31.4269 38.155 31.3699 37.815C31.2569 36.823 31.1429 35.831 31.0579 34.815C30.9729 33.823 30.9159 32.803 30.8879 31.815C30.8029 29.803 30.8029 27.791 30.8599 25.779C30.9169 23.795 31.0869 21.812 31.3129 19.857C31.0139 19.9134 30.7102 19.9419 30.4059 19.942C29.5023 19.9389 28.6145 19.7048 27.8269 19.262V19.347C27.5439 21.447 27.3739 23.569 27.2889 25.666C27.2319 27.791 27.2319 29.888 27.3459 31.985C27.5149 34.045 27.7129 36.17 28.0249 38.239Z" fill="white"/>
<path d="M44.9151 50.31C44.6881 50.763 44.4331 51.188 44.1781 51.61C43.9208 52.0336 43.6369 52.4404 43.3281 52.828C42.7671 53.5838 42.0877 54.244 41.3161 54.783C40.6626 55.259 39.8497 55.4623 39.0491 55.35C38.9921 55.35 38.9641 55.322 38.9071 55.322L38.7651 55.294L38.6231 55.266C38.5661 55.238 38.5381 55.238 38.4811 55.209C38.3913 55.1834 38.3055 55.1453 38.2261 55.096L37.9711 54.954C37.6091 54.7425 37.2757 54.4854 36.9791 54.189C36.3402 53.5246 35.7878 52.782 35.3351 51.979C34.8573 51.1411 34.4406 50.2699 34.0881 49.372C33.9461 49.032 33.8331 48.692 33.6881 48.352C32.8684 48.9069 31.901 49.203 30.9111 49.202C31.1111 49.627 31.2791 50.08 31.5111 50.502C31.972 51.4977 32.5121 52.4548 33.1261 53.364C33.7633 54.321 34.5257 55.1884 35.3931 55.943C35.8584 56.3381 36.3726 56.6715 36.9231 56.935C37.5062 57.2238 38.1431 57.3879 38.7931 57.417C39.4462 57.4688 40.1026 57.3752 40.7151 57.143C41.2954 56.928 41.8328 56.6113 42.3021 56.208C42.7408 55.8453 43.1397 55.437 43.4921 54.99C43.8294 54.5548 44.1416 54.1008 44.4271 53.63C44.9514 52.6957 45.397 51.7193 45.7591 50.711C46.447 48.7445 46.9312 46.7125 47.2041 44.647C46.6181 46.6015 45.8518 48.4973 44.9151 50.31Z" fill="white"/>
<path d="M18.3049 14.861C19.1562 14.5847 20.045 14.4413 20.9399 14.436C21.8987 14.4282 22.8564 14.5041 23.8019 14.663C24.2839 14.748 24.7369 14.833 25.2189 14.918V14.663C25.2181 13.7464 25.4625 12.8463 25.9269 12.056C25.3269 11.971 24.7369 11.886 24.1419 11.829C23.0295 11.7298 21.9104 11.7298 20.7979 11.829C19.614 11.9099 18.4535 12.1975 17.3689 12.679C16.7854 12.9377 16.2493 13.2923 15.7829 13.728C15.301 14.1845 14.9166 14.7339 14.6529 15.343C14.4117 15.9488 14.2764 16.5915 14.2529 17.243C14.2551 17.8451 14.3313 18.4446 14.4799 19.028C14.7782 20.1055 15.2266 21.1356 15.8119 22.088C16.3702 23.0019 16.9952 23.8733 17.6819 24.695C19.0434 26.2977 20.5624 27.7597 22.2159 29.059C21.5359 28.266 20.8839 27.472 20.2609 26.65C19.6379 25.828 19.0429 24.978 18.5039 24.128C17.9563 23.2774 17.4733 22.3869 17.0589 21.464C16.6602 20.5884 16.3742 19.6657 16.2079 18.718C16.0413 17.8935 16.1509 17.037 16.5199 16.281C16.931 15.6139 17.5625 15.1116 18.3049 14.861Z" fill="white"/>
<path d="M50.382 27.555C50.8215 26.4156 51.643 25.4641 52.706 24.863C51.119 23.588 49.447 22.369 47.747 21.236C45.962 20.074 44.147 18.969 42.278 17.949C40.408 16.957 38.478 16.022 36.526 15.2C36.243 15.087 35.926 14.973 35.648 14.832C35.6167 15.9934 35.1974 17.1108 34.457 18.006C34.684 18.119 34.939 18.206 35.165 18.318C37.007 19.14 38.82 20.075 40.577 21.067C42.334 22.059 44.091 23.107 45.763 24.212C47.35 25.26 48.881 26.365 50.382 27.555Z" fill="white"/>
<path d="M64.0123 40.991C63.9862 39.7723 63.7265 38.5699 63.2473 37.4491C62.8245 36.4016 62.3025 35.397 61.6883 34.4491C61.1297 33.5603 60.5145 32.7086 59.8463 31.899C59.3041 32.8911 58.4604 33.6851 57.4373 34.166C58.0039 34.818 58.5423 35.498 59.0523 36.206C59.6022 36.9759 60.0856 37.7912 60.4973 38.6431C60.8936 39.4 61.1343 40.2286 61.2053 41.08C61.2194 41.1739 61.2194 41.2692 61.2053 41.3631V41.646C61.2053 41.731 61.1773 41.816 61.1773 41.901L61.1493 42.043L61.1213 42.1561C61.0458 42.4819 60.8901 42.7837 60.6683 43.034C60.4238 43.3132 60.137 43.5521 59.8183 43.7421C59.6449 43.8474 59.4653 43.9419 59.2803 44.025C59.0792 44.1176 58.8708 44.1936 58.6573 44.252C58.4446 44.3254 58.2266 44.3822 58.0053 44.422C57.7783 44.45 57.5523 44.507 57.3253 44.535C56.8463 44.602 56.3638 44.6397 55.8803 44.648C54.8873 44.6664 53.894 44.6287 52.9053 44.535C50.8777 44.3205 48.8695 43.9511 46.8983 43.4301C44.9143 42.9201 42.9313 42.297 40.9473 41.616C41.8543 42.126 42.7613 42.608 43.6963 43.09C44.6313 43.543 45.5963 43.9681 46.5583 44.3651C48.5128 45.1682 50.5321 45.8038 52.5943 46.265C53.6472 46.501 54.7172 46.6525 55.7943 46.718C56.3508 46.7606 56.9097 46.7606 57.4663 46.718C57.7493 46.718 58.0333 46.661 58.3163 46.661C58.5993 46.604 58.8833 46.576 59.1943 46.519C59.8012 46.4037 60.3914 46.2133 60.9513 45.952C61.5537 45.6626 62.1004 45.2692 62.5663 44.79C63.0544 44.2781 63.4307 43.6702 63.6713 43.0051L63.7563 42.75L63.8133 42.495C63.8413 42.325 63.8983 42.155 63.9263 41.985L63.9833 41.4751C64.0222 41.3168 64.0321 41.1528 64.0123 40.991Z" fill="white"/>
<path d="M30.434 18.432C32.5156 18.432 34.203 16.7446 34.203 14.663C34.203 12.5815 32.5156 10.894 30.434 10.894C28.3525 10.894 26.665 12.5815 26.665 14.663C26.665 16.7446 28.3525 18.432 30.434 18.432Z" fill="white"/>
</g>
<path opacity="0.54" d="M15.8162 49.5898L21.0099 52.2402L16.9815 57.1159L14.6496 56.2146L15.8162 49.5898Z" fill="#AF60D7"/>
<path opacity="0.54" d="M61.6489 1.04303C63.5083 0.358517 66.4583 0.642591 67.7009 0.870192C68.9435 1.09779 70.8216 5.27195 67.0561 5.51156C65.3722 5.61872 63.3283 4.82876 63.3283 4.82876C61.7099 4.8374 58.5143 5.19174 58.6799 6.54004C58.8454 7.88833 54.7602 7.59158 52.6968 7.27466C51.8301 6.81082 50.5339 5.4873 52.283 3.90393C54.4692 1.92471 54.7452 4.17187 58.266 3.1693C61.7868 2.16674 59.3246 1.89867 61.6489 1.04303Z" fill="#FB906E"/>
<path opacity="0.54" d="M160 13L165 10L167 16L165 17.5L160 13Z" fill="#AF60D7"/>
<path opacity="0.54" d="M72 11L77 8L79 14L77 15.5L72 11Z" fill="#AF60D7"/>
<circle opacity="0.54" cx="17" cy="3" r="3" fill="#FED15A"/>
<circle opacity="0.54" cx="54" cy="55" r="3" fill="#FB906E"/>
<circle opacity="0.54" cx="87" cy="5" r="3" fill="#FED15A"/>
<path opacity="0.54" d="M144.377 6.00919C144.546 4.51636 146.006 2.8143 146.715 2.14987C147.424 1.48544 151.827 2.34411 150.488 4.80956C149.889 5.91211 148.361 6.80285 148.361 6.80285C147.703 7.81665 146.698 9.98238 147.939 10.5349C149.18 11.0874 147.242 13.4915 146.118 14.6244C145.358 14.9395 143.674 15.1043 143.015 13.2431C142.192 10.9167 144.261 11.8375 144.836 9.15361C145.412 6.46967 144.166 7.87521 144.377 6.00919Z" fill="#FB906E"/>
<path opacity="0.54" d="M112.331 7.32802L113.147 1.55433L119.068 3.77596L118.975 6.27424L112.331 7.32802Z" fill="#FED15A"/>
<path opacity="0.54" d="M0.137578 29.0235C-0.262422 28.2235 0.304244 27.0235 0.637578 26.5235C0.970911 26.0235 4.83299 25.4613 4.6377 27.0235C4.55036 27.7221 3.6377 28.5235 3.6377 28.5235C3.47103 29.1901 3.4377 30.5235 4.6377 30.5235C5.8377 30.5235 5.1377 32.1901 4.6377 33.0235C4.1377 33.3568 2.8377 33.8235 1.6377 33.0235C0.137695 32.0235 2.1377 32.0235 1.6377 30.5235C1.1377 29.0235 0.637578 30.0235 0.137578 29.0235Z" fill="#49E88E"/>
<path opacity="0.54" d="M124 6L129 3L131 9L129 10.5L124 6Z" fill="#49E88E"/>
<circle opacity="0.54" cx="101" cy="13" r="3" fill="#49E88E"/>
<path opacity="0.54" d="M67.1376 48.0235C66.7376 47.2235 67.3042 46.0235 67.6376 45.5235C67.9709 45.0235 71.833 44.4613 71.6377 46.0235C71.5504 46.7221 70.6377 47.5235 70.6377 47.5235C70.471 48.1901 70.4377 49.5235 71.6377 49.5235C72.8377 49.5235 72.1377 51.1901 71.6377 52.0235C71.1377 52.3568 69.8377 52.8235 68.6377 52.0235C67.1377 51.0235 69.1377 51.0235 68.6377 49.5235C68.1377 48.0235 67.6376 49.0235 67.1376 48.0235Z" fill="#9DF3C2"/>
<defs>
<clipPath id="clip0_1384_634">
<rect width="146.642" height="56.438" fill="white" transform="translate(14 1)"/>
</clipPath>
</defs>
</svg>
