<svg width="167" height="58" viewBox="0 0 167 58" fill="none" xmlns="http://www.w3.org/2000/svg">
<path d="M78.042 29.3389C78.042 22.7079 82.179 17.7769 88.725 17.7769C95.271 17.7769 99.38 22.7079 99.38 29.3389C99.38 35.9699 95.271 40.8719 88.725 40.8719C82.208 40.8719 78.042 35.9689 78.042 29.3389ZM94.818 29.3389C94.818 24.9179 92.834 21.4609 88.782 21.4609C84.73 21.4609 82.633 24.9179 82.633 29.3389C82.633 33.7309 84.702 37.1879 88.754 37.1879C92.806 37.1879 94.818 33.7309 94.818 29.3389Z" fill="#E86161"/>
<path d="M101.845 18.231H112.018C116.297 18.231 119.131 20.696 119.131 24.408C119.221 25.6405 118.859 26.8636 118.114 27.8491C117.368 28.8346 116.289 29.5152 115.079 29.764V29.849C117.119 30.449 118.168 31.606 118.451 34.298C118.763 37.415 118.651 39.824 119.414 40.164V40.391H115.107C114.54 40.136 114.484 37.671 114.314 35.291C114.114 32.882 112.755 31.522 109.978 31.522H106.351V40.363H101.845V18.231ZM106.351 28.007H111.112C113.549 28.007 114.767 26.732 114.767 24.975C114.767 23.19 113.634 21.858 111.225 21.858H106.325V28.007H106.351Z" fill="#E86161"/>
<path d="M122.021 18.23H126.527V27.043L135.056 18.202H140.638L131.938 27.071L141.176 40.361H135.905L128.792 30.018L126.525 32.318V40.366H122.021V18.23Z" fill="#E86161"/>
<path d="M157.102 37.3869H157.045C156.441 38.4932 155.533 39.4037 154.429 40.0112C153.324 40.6188 152.069 40.898 150.811 40.8159C149.361 40.8689 147.916 40.6076 146.576 40.0501C145.236 39.4926 144.032 38.652 143.047 37.5859C141.056 35.104 140.033 31.9837 140.168 28.8045C140.304 25.6253 141.589 22.6034 143.784 20.2999C145.739 18.5663 148.286 17.6529 150.897 17.7499C156.479 17.7499 159.653 20.8099 160.39 25.1499H155.997C155.515 23.0249 153.872 21.4659 151.01 21.4659C146.816 21.4659 144.748 24.9229 144.748 29.3439C144.748 33.8779 147.128 37.1929 150.954 37.1929C152.371 37.2685 153.762 36.7857 154.828 35.848C155.893 34.9103 156.549 33.5924 156.654 32.1769V32.0639H151.327V28.6069H160.65V40.3669H157.278L157.102 37.3869Z" fill="#E86161"/>
<path d="M63.7649 17.9219V17.4399C63.7369 17.2699 63.7369 17.1279 63.7079 16.9579C63.6189 16.3109 63.3998 15.6885 63.0638 15.1284C62.7278 14.5683 62.2819 14.0821 61.7529 13.6989C61.2544 13.3529 60.7111 13.0764 60.1379 12.8769C59.0642 12.5499 57.945 12.3969 56.8229 12.4239C55.7574 12.45 54.6958 12.5637 53.6489 12.7639C51.599 13.1753 49.5959 13.7924 47.6699 14.6059C48.6899 14.4059 49.7099 14.2059 50.7299 14.0679C51.7499 13.9299 52.7699 13.8129 53.7899 13.7559C54.7897 13.6899 55.7934 13.7089 56.7899 13.8129C57.735 13.9016 58.6615 14.1308 59.5389 14.4929C60.2978 14.7911 60.9224 15.3552 61.2959 16.0799C61.5889 16.8199 61.6386 17.6339 61.4379 18.4039C61.2141 19.287 60.8709 20.1355 60.4179 20.9259C59.9354 21.7586 59.4055 22.5629 58.8309 23.3349C58.4629 23.8169 58.0939 24.2699 57.6979 24.7239C58.5927 25.176 59.34 25.874 59.8519 26.7359C60.3049 26.1689 60.7299 25.5739 61.1269 24.9789C61.7354 24.061 62.2845 23.105 62.7709 22.1169C63.2626 21.0742 63.6059 19.9678 63.7909 18.8299C63.8143 18.6801 63.8237 18.5285 63.8189 18.3769L63.8469 18.1499C63.8157 18.1215 63.7919 18.0859 63.7776 18.0461C63.7633 18.0064 63.759 17.9638 63.7649 17.9219Z" fill="#E86161"/>
<path d="M55.259 33.165C57.3406 33.165 59.028 31.4775 59.028 29.396C59.028 27.3144 57.3406 25.627 55.259 25.627C53.1774 25.627 51.49 27.3144 51.49 29.396C51.49 31.4775 53.1774 33.165 55.259 33.165Z" fill="#E86161"/>
<path d="M25.6749 43.9889C25.6702 43.8656 25.6796 43.7421 25.7029 43.6209C24.8809 43.7909 24.0309 43.9329 23.2089 44.0459C22.7269 44.1029 22.2739 44.1309 21.7919 44.1589C21.3389 44.1589 20.8569 44.1589 20.4029 44.1309C19.5675 44.0969 18.7478 43.8927 17.9939 43.5309C17.3654 43.2362 16.8772 42.7071 16.6339 42.0569C16.4203 41.278 16.4203 40.4559 16.6339 39.6769C16.8642 38.764 17.197 37.8801 17.6259 37.0419C18.0706 36.1544 18.5821 35.302 19.1559 34.4919C20.3108 32.8209 21.5897 31.2391 22.9819 29.7599C24.3709 28.2599 25.8439 26.8129 27.3739 25.3959C25.6074 26.4952 23.9133 27.7067 22.3019 29.0229C20.6677 30.3545 19.1508 31.8239 17.7679 33.4149C17.0784 34.2383 16.4351 35.0993 15.8409 35.9939C15.2354 36.9422 14.75 37.962 14.3959 39.0299C14.2136 39.6015 14.0903 40.1902 14.0279 40.7869C13.9632 41.4419 14.0112 42.1032 14.1699 42.7419C14.3359 43.428 14.6557 44.0675 15.1049 44.6119C15.5301 45.1449 16.0485 45.5962 16.6349 45.9439C17.1783 46.2607 17.7591 46.5083 18.3639 46.6809C18.9404 46.8442 19.5274 46.9671 20.1209 47.0489C21.2403 47.1756 22.3686 47.2041 23.4929 47.1339C24.5098 47.0689 25.5221 46.946 26.5249 46.7659C25.95 45.9559 25.6519 44.982 25.6749 43.9889Z" fill="#E86161"/>
<path d="M50.4129 31.322C50.3279 31.407 50.2129 31.464 50.1299 31.549C48.5149 32.767 46.8709 33.929 45.1709 34.978C43.4709 36.055 41.7419 37.0779 39.9569 38.0379C38.2849 38.9449 36.5569 39.767 34.8279 40.532C35.6345 41.4516 36.0944 42.6242 36.1279 43.847C38.0265 43.0536 39.8685 42.1753 41.6539 41.212C43.5239 40.22 45.3379 39.1119 47.0949 37.9819C48.8519 36.8199 50.5799 35.573 52.2239 34.242C52.3632 34.1358 52.4967 34.0223 52.6239 33.9019C51.6121 33.3218 50.8313 32.4106 50.4129 31.322Z" fill="#E86161"/>
<path d="M30.8889 47.758C32.9704 47.758 34.6579 46.0705 34.6579 43.989C34.6579 41.9074 32.9704 40.22 30.8889 40.22C28.8073 40.22 27.1199 41.9074 27.1199 43.989C27.1199 46.0705 28.8073 47.758 30.8889 47.758Z" fill="#C0C2CC"/>
<path d="M30.4359 9.44595C31.4869 9.44668 32.5134 9.76263 33.3829 10.353C33.6379 9.64495 33.8929 8.96395 34.1759 8.28395C34.5549 7.43232 35.0101 6.61668 35.5359 5.84695C35.6779 5.67695 35.7909 5.47895 35.9359 5.30895L36.1359 5.05395L36.3629 4.82695C36.5049 4.65695 36.6749 4.54395 36.8159 4.40195C36.9009 4.34495 36.9579 4.28895 37.0429 4.23195C37.1118 4.1746 37.1882 4.12683 37.2699 4.08995L37.4969 3.94795C37.5743 3.92435 37.6501 3.89596 37.7239 3.86295C37.7964 3.82681 37.8725 3.79832 37.9509 3.77795C38.0237 3.74888 38.1 3.72971 38.1779 3.72095C38.5068 3.65971 38.845 3.66926 39.1699 3.74895C39.9537 3.97931 40.6594 4.42032 41.2099 5.02395C41.5499 5.33595 41.8329 5.70395 42.1449 6.04395C42.4415 6.42451 42.716 6.82183 42.9669 7.23395C43.4993 8.06912 43.9718 8.94097 44.3809 9.84295C45.229 11.6835 45.9569 13.5772 46.5599 15.5119C47.1599 17.4669 47.6649 19.4509 48.1189 21.4909C48.0909 20.4429 48.0059 19.422 47.9189 18.374C47.8059 17.354 47.6919 16.305 47.5189 15.285C47.1867 13.2071 46.685 11.16 46.0189 9.16395C45.6639 8.14794 45.2474 7.15445 44.7719 6.18895C44.2789 5.17988 43.66 4.23737 42.9299 3.38395C42.5382 2.93574 42.1027 2.52772 41.6299 2.16595C41.1079 1.76982 40.5236 1.4633 39.9009 1.25895C39.2374 1.02713 38.5299 0.949501 37.8319 1.03195C37.6599 1.04645 37.4893 1.07488 37.3219 1.11695C37.1492 1.14108 36.9787 1.17887 36.8119 1.22995L36.3299 1.39995C36.1734 1.46419 36.022 1.54007 35.8769 1.62695C35.7235 1.69062 35.5803 1.77654 35.4519 1.88195C35.3099 1.96695 35.1689 2.05195 35.0519 2.13695C34.7938 2.32119 34.5477 2.52159 34.3149 2.73695L33.9749 3.04895L33.6629 3.38895C33.4574 3.60135 33.2679 3.82863 33.0959 4.06895C32.399 4.96125 31.7914 5.91985 31.2819 6.93095C30.8628 7.7455 30.4951 8.58548 30.1809 9.44595H30.4359Z" fill="#BFC2CD"/>
<path d="M28.0269 38.2369C28.0839 38.6619 28.1689 39.0589 28.2269 39.4839C29.0258 39.0159 29.9359 38.7714 30.8619 38.7759C31.0803 38.7796 31.2981 38.7987 31.5139 38.8329C31.4569 38.4929 31.4289 38.1529 31.3719 37.8129C31.2589 36.8209 31.1449 35.8289 31.0599 34.8129C30.9749 33.8209 30.9179 32.8009 30.8899 31.8129C30.8049 29.8009 30.8049 27.7889 30.8619 25.7769C30.9189 23.7929 31.0889 21.8099 31.3149 19.8549C31.0158 19.9113 30.7122 19.9398 30.4079 19.9399C29.5043 19.9368 28.6165 19.7028 27.8289 19.2599V19.3449C27.5459 21.4449 27.3759 23.5669 27.2909 25.6639C27.2339 27.7889 27.2339 29.8859 27.3479 31.9829C27.5169 34.0429 27.7149 36.1679 28.0269 38.2369Z" fill="#BFC2CD"/>
<path d="M44.9168 50.308C44.6898 50.761 44.4348 51.186 44.1798 51.608C43.9225 52.0315 43.6386 52.4383 43.3298 52.826C42.7688 53.5817 42.0894 54.2419 41.3178 54.781C40.6643 55.2569 39.8515 55.4602 39.0508 55.348C38.9938 55.348 38.9658 55.32 38.9088 55.32L38.7668 55.292L38.6248 55.264C38.5678 55.236 38.5398 55.236 38.4828 55.207C38.393 55.1813 38.3072 55.1433 38.2278 55.0939L37.9728 54.952C37.6108 54.7404 37.2774 54.4833 36.9808 54.187C36.3419 53.5225 35.7895 52.78 35.3368 51.977C34.859 51.1391 34.4423 50.2678 34.0898 49.3699C33.9478 49.0299 33.8348 48.69 33.6898 48.35C32.8701 48.9049 31.9027 49.201 30.9128 49.2C31.1128 49.625 31.2808 50.078 31.5128 50.5C31.9737 51.4956 32.5138 52.4527 33.1278 53.362C33.765 54.3189 34.5275 55.1863 35.3948 55.9409C35.8601 56.336 36.3743 56.6694 36.9248 56.933C37.508 57.2217 38.1448 57.3859 38.7948 57.4149C39.4479 57.4667 40.1043 57.3731 40.7168 57.141C41.2971 56.9259 41.8345 56.6093 42.3038 56.2059C42.7425 55.8433 43.1414 55.435 43.4938 54.988C43.8311 54.5528 44.1433 54.0987 44.4288 53.628C44.9531 52.6936 45.3987 51.7173 45.7608 50.709C46.4487 48.7424 46.9329 46.7104 47.2058 44.645C46.6198 46.5994 45.8535 48.4952 44.9168 50.308Z" fill="#BFC2CD"/>
<path d="M18.3069 14.859C19.1581 14.5826 20.0469 14.4393 20.9419 14.434C21.9007 14.4261 22.8583 14.5021 23.8039 14.661C24.2859 14.746 24.7389 14.831 25.2209 14.916V14.661C25.22 13.7444 25.4645 12.8442 25.9289 12.054C25.3289 11.969 24.7389 11.884 24.1439 11.827C23.0314 11.7278 21.9123 11.7278 20.7999 11.827C19.616 11.9078 18.4554 12.1955 17.3709 12.677C16.7874 12.9356 16.2513 13.2902 15.7849 13.726C15.303 14.1824 14.9186 14.7318 14.6549 15.341C14.4137 15.9467 14.2784 16.5894 14.2549 17.241C14.257 17.843 14.3332 18.4425 14.4819 19.026C14.7802 20.1034 15.2286 21.1335 15.8139 22.086C16.3721 22.9999 16.9971 23.8712 17.6839 24.693C19.0454 26.2957 20.5643 27.7577 22.2179 29.057C21.5379 28.264 20.8859 27.47 20.2629 26.648C19.6399 25.826 19.0449 24.976 18.5059 24.126C17.9583 23.2754 17.4752 22.3849 17.0609 21.462C16.6621 20.5863 16.3762 19.6636 16.2099 18.716C16.0432 17.8914 16.1529 17.0349 16.5219 16.279C16.933 15.6119 17.5644 15.1095 18.3069 14.859Z" fill="#80869B"/>
<path d="M50.384 27.553C50.8235 26.4135 51.6449 25.462 52.708 24.861C51.121 23.586 49.449 22.367 47.749 21.234C45.964 20.072 44.149 18.967 42.28 17.947C40.41 16.955 38.48 16.02 36.528 15.198C36.245 15.085 35.928 14.971 35.65 14.83C35.6187 15.9913 35.1994 17.1087 34.459 18.004C34.686 18.117 34.941 18.204 35.167 18.316C37.009 19.138 38.822 20.073 40.579 21.065C42.336 22.057 44.093 23.105 45.765 24.21C47.352 25.258 48.883 26.363 50.384 27.553Z" fill="#80869B"/>
<path d="M64.014 40.989C63.9879 39.7702 63.7282 38.5678 63.249 37.447C62.8262 36.3995 62.3042 35.3949 61.69 34.447C61.1314 33.5583 60.5162 32.7065 59.848 31.897C59.3058 32.889 58.4621 33.683 57.439 34.164C58.0056 34.816 58.544 35.496 59.054 36.204C59.6039 36.9738 60.0873 37.7891 60.499 38.641C60.8953 39.3979 61.136 40.2265 61.207 41.078C61.2211 41.1718 61.2211 41.2672 61.207 41.361V41.644C61.207 41.729 61.179 41.814 61.179 41.899L61.151 42.041L61.123 42.154C61.0475 42.4798 60.8918 42.7816 60.67 43.032C60.4256 43.3111 60.1387 43.5501 59.82 43.74C59.6466 43.8453 59.467 43.9398 59.282 44.023C59.0809 44.1156 58.8725 44.1915 58.659 44.25C58.4463 44.3233 58.2283 44.3801 58.007 44.42C57.78 44.448 57.554 44.505 57.327 44.533C56.848 44.5999 56.3655 44.6376 55.882 44.646C54.889 44.6644 53.8957 44.6266 52.907 44.533C50.8794 44.3184 48.8712 43.949 46.9 43.428C44.916 42.918 42.933 42.295 40.949 41.614C41.856 42.124 42.763 42.606 43.698 43.088C44.633 43.541 45.598 43.966 46.56 44.363C48.5145 45.1661 50.5338 45.8018 52.596 46.263C53.6489 46.4989 54.7189 46.6504 55.796 46.716C56.3525 46.7585 56.9114 46.7585 57.468 46.716C57.751 46.716 58.035 46.659 58.318 46.659C58.601 46.602 58.885 46.574 59.196 46.517C59.8029 46.4016 60.3931 46.2112 60.953 45.95C61.5554 45.6605 62.1021 45.2672 62.568 44.788C63.0561 44.276 63.4324 43.6682 63.673 43.003L63.758 42.748L63.815 42.493C63.843 42.323 63.9 42.153 63.928 41.983L63.985 41.473C64.0239 41.3147 64.0338 41.1507 64.014 40.989Z" fill="#80869B"/>
<path d="M30.436 18.43C32.5176 18.43 34.205 16.7425 34.205 14.661C34.205 12.5794 32.5176 10.892 30.436 10.892C28.3544 10.892 26.667 12.5794 26.667 14.661C26.667 16.7425 28.3544 18.43 30.436 18.43Z" fill="#80869B"/>
<path opacity="0.54" d="M15.8162 49.5898L21.0099 52.2402L16.9815 57.1159L14.6496 56.2146L15.8162 49.5898Z" fill="#AF60D7"/>
<path opacity="0.54" d="M61.6489 1.04303C63.5083 0.358517 66.4583 0.642591 67.7009 0.870192C68.9435 1.09779 70.8216 5.27195 67.0561 5.51156C65.3722 5.61872 63.3283 4.82876 63.3283 4.82876C61.7099 4.8374 58.5143 5.19174 58.6799 6.54004C58.8454 7.88833 54.7602 7.59158 52.6968 7.27466C51.8301 6.81082 50.5339 5.4873 52.283 3.90393C54.4692 1.92471 54.7452 4.17187 58.266 3.1693C61.7868 2.16674 59.3246 1.89867 61.6489 1.04303Z" fill="#FB906E"/>
<path opacity="0.54" d="M160 13L165 10L167 16L165 17.5L160 13Z" fill="#AF60D7"/>
<path opacity="0.54" d="M72 11L77 8L79 14L77 15.5L72 11Z" fill="#AF60D7"/>
<circle opacity="0.54" cx="17" cy="3" r="3" fill="#FED15A"/>
<circle opacity="0.54" cx="54" cy="55" r="3" fill="#FB906E"/>
<circle opacity="0.54" cx="87" cy="5" r="3" fill="#FED15A"/>
<path opacity="0.54" d="M144.377 6.00919C144.546 4.51636 146.006 2.8143 146.715 2.14987C147.424 1.48544 151.827 2.34411 150.488 4.80956C149.889 5.91211 148.361 6.80285 148.361 6.80285C147.703 7.81665 146.698 9.98238 147.939 10.5349C149.18 11.0874 147.242 13.4915 146.118 14.6244C145.358 14.9395 143.674 15.1043 143.015 13.2431C142.192 10.9167 144.261 11.8375 144.836 9.15361C145.412 6.46967 144.166 7.87521 144.377 6.00919Z" fill="#FB906E"/>
<path opacity="0.54" d="M112.331 7.32802L113.147 1.55433L119.068 3.77596L118.975 6.27424L112.331 7.32802Z" fill="#FED15A"/>
<path opacity="0.54" d="M0.137578 29.0235C-0.262422 28.2235 0.304244 27.0235 0.637578 26.5235C0.970911 26.0235 4.83299 25.4613 4.6377 27.0235C4.55036 27.7221 3.6377 28.5235 3.6377 28.5235C3.47103 29.1901 3.4377 30.5235 4.6377 30.5235C5.8377 30.5235 5.1377 32.1901 4.6377 33.0235C4.1377 33.3568 2.8377 33.8235 1.6377 33.0235C0.137695 32.0235 2.1377 32.0235 1.6377 30.5235C1.1377 29.0235 0.637578 30.0235 0.137578 29.0235Z" fill="#49E88E"/>
<path opacity="0.54" d="M124 6L129 3L131 9L129 10.5L124 6Z" fill="#49E88E"/>
<circle opacity="0.54" cx="101" cy="13" r="3" fill="#49E88E"/>
<path d="M67.1376 48.0235C66.7376 47.2235 67.3042 46.0235 67.6376 45.5235C67.9709 45.0235 71.833 44.4613 71.6377 46.0235C71.5504 46.7221 70.6377 47.5235 70.6377 47.5235C70.471 48.1901 70.4377 49.5235 71.6377 49.5235C72.8377 49.5235 72.1377 51.1901 71.6377 52.0235C71.1377 52.3568 69.8377 52.8235 68.6377 52.0235C67.1377 51.0235 69.1377 51.0235 68.6377 49.5235C68.1377 48.0235 67.6376 49.0235 67.1376 48.0235Z" fill="#9DF3C2"/>
</svg>
